<mxfile host="app.diagrams.net" modified="2022-07-17T07:07:52.849Z" agent="5.0 (Windows NT 10.0; Win64; x64) AppleWebKit/537.36 (KHTML, like Gecko) Chrome/103.0.0.0 Safari/537.36" etag="nHOOiuR_T4PWMFuin9g9" version="20.1.1" type="github">
  <diagram id="b1pWGrirFNGK_OicqLVK" name="Page-1">
    <mxGraphModel dx="1209" dy="741" grid="1" gridSize="10" guides="1" tooltips="1" connect="1" arrows="1" fold="1" page="1" pageScale="1" pageWidth="700" pageHeight="650" math="0" shadow="0">
      <root>
        <object label="" id="0">
          <mxCell />
        </object>
        <mxCell id="1" value="Region layer" style="" parent="0" />
        <mxCell id="Mvm1oyz63STRThyXKM0V-1" value="" style="rounded=1;whiteSpace=wrap;html=1;strokeColor=#CCCCCC;arcSize=2;fillColor=#f4f3ef;" parent="1" vertex="1">
          <mxGeometry x="25" y="110" width="520" height="390" as="geometry" />
        </mxCell>
        <mxCell id="Mvm1oyz63STRThyXKM0V-2" value="&lt;font color=&quot;#3f3a36&quot; size=&quot;1&quot;&gt;&lt;b style=&quot;font-size: 14px&quot;&gt;Oracle Cloud Infrastructure (Region)&lt;/b&gt;&lt;/font&gt;" style="text;html=1;align=left;verticalAlign=middle;resizable=0;points=[];autosize=1;" parent="1" vertex="1">
          <mxGeometry x="45.00230452674896" y="120" width="260" height="20" as="geometry" />
        </mxCell>
        <mxCell id="Mvm1oyz63STRThyXKM0V-16" value="" style="group" parent="1" vertex="1" connectable="0">
          <mxGeometry x="140" y="240" width="610" height="500" as="geometry" />
        </mxCell>
        <mxCell id="JLlgExNKZI0VBw3Vx1Ag-6" value="&lt;font color=&quot;#3f3a36&quot; size=&quot;1&quot;&gt;&lt;b style=&quot;font-size: 14px&quot;&gt;South Korea North(Chuncheon)&lt;/b&gt;&lt;/font&gt;" style="text;html=1;align=right;verticalAlign=middle;resizable=0;points=[];autosize=1;" parent="1" vertex="1">
          <mxGeometry x="300.00230452674896" y="115" width="230" height="30" as="geometry" />
        </mxCell>
        <mxCell id="MoFwSUSyxBEC_ITN7L_5-20" value="" style="shape=image;verticalLabelPosition=bottom;labelBackgroundColor=#ffffff;verticalAlign=top;aspect=fixed;imageAspect=0;image=https://external-content.duckduckgo.com/iu/?u=https%3A%2F%2Fcdn2.downdetector.com%2Fstatic%2Fuploads%2Flogo%2Foracle-cloud.png&amp;f=1&amp;nofb=1;" parent="1" vertex="1">
          <mxGeometry x="30" y="455" width="117.71" height="40" as="geometry" />
        </mxCell>
        <mxCell id="XNlKQDu2wW22NGatePbE-3" value="&lt;font color=&quot;#3f3a36&quot;&gt;&lt;span style=&quot;font-size: 11px;&quot;&gt;php7.4&lt;br&gt;wp 5.1.1&lt;br&gt;maria db 10.1&lt;br&gt;phpmysqladmin&lt;br&gt;SSL encryption&lt;br&gt;&lt;/span&gt;&lt;/font&gt;" style="whiteSpace=wrap;html=1;labelBackgroundColor=none;fillColor=#dae8fc;strokeColor=#6c8ebf;" vertex="1" parent="1">
          <mxGeometry x="30" y="520" width="118.86" height="75" as="geometry" />
        </mxCell>
        <mxCell id="XNlKQDu2wW22NGatePbE-8" value="" style="rounded=1;whiteSpace=wrap;html=1;strokeColor=#CCCCCC;arcSize=2;fillColor=#DFDDD9;" vertex="1" parent="1">
          <mxGeometry x="140" y="170" width="300" height="220" as="geometry" />
        </mxCell>
        <mxCell id="XNlKQDu2wW22NGatePbE-7" style="edgeStyle=orthogonalEdgeStyle;orthogonalLoop=1;jettySize=auto;html=1;exitX=0.003;exitY=0.628;exitDx=0;exitDy=0;startArrow=none;startFill=0;endArrow=none;endFill=0;strokeColor=#d6b656;fillColor=#fff2cc;curved=1;exitPerimeter=0;" edge="1" parent="1" source="XNlKQDu2wW22NGatePbE-3" target="MoFwSUSyxBEC_ITN7L_5-1">
          <mxGeometry relative="1" as="geometry">
            <mxPoint x="274" y="160" as="sourcePoint" />
            <mxPoint x="250" y="231" as="targetPoint" />
          </mxGeometry>
        </mxCell>
        <mxCell id="XNlKQDu2wW22NGatePbE-11" value="" style="shape=image;verticalLabelPosition=bottom;labelBackgroundColor=default;verticalAlign=top;aspect=fixed;imageAspect=0;image=data:image/png,iVBORw0KGgoAAAANSUhEUgAAAgAAAAIACAMAAADDpiTIAAAAA3NCSVQICAjb4U/gAAAACXBIWXMAAEkTAABJEwGgEKHmAAAAGXRFWHRTb2Z0d2FyZQB3d3cuaW5rc2NhcGUub3Jnm+48GgAAAwBQTFRF////AAAAAAAAAAAAAAAAAAAAAAAAAAAAAAAAAAAAAAAAAAAAAAAAAAAAAAAAAAAAAAAAAAAAAAAAAAAAAAAAAAAAAAAAAAAAAAAAAAAAAAAAAAAAAAAAAAAAAAAAAAAAAAAAAAAAAAAAAAAAAAAAAAAAAAAAAAAAAAAAAAAAAAAAAAAAAAAAAAAAAAAAAAAAAAAAAAAAAAAAAAAAAAAAAAAAAAAAAAAAAAAAAAAAAAAAAAAAAAAAAAAAAAAAAAAAAAAAAAAAAAAAAAAAAAAAAAAAAAAAAAAAAAAAAAAAAAAAAAAAAAAAAAAAAAAAAAAAAAAAAAAAAAAAAAAAAAAAAAAAAAAAAAAAAAAAAAAAAAAAAAAAAAAAAAAAAAAAAAAAAAAAAAAAAAAAAAAAAAAAAAAAAAAAAAAAAAAAAAAAAAAAAAAAAAAAAAAAAAAAAAAAAAAAAAAAAAAAAAAAAAAAAAAAAAAAAAAAAAAAAAAAAAAAAAAAAAAAAAAAAAAAAAAAAAAAAAAAAAAAAAAAAAAAAAAAAAAAAAAAAAAAAAAAAAAAAAAAAAAAAAAAAAAAAAAAAAAAAAAAAAAAAAAAAAAAAAAAAAAAAAAAAAAAAAAAAAAAAAAAAAAAAAAAAAAAAAAAAAAAAAAAAAAAAAAAAAAAAAAAAAAAAAAAAAAAAAAAAAAAAAAAAAAAAAAAAAAAAAAAAAAAAAAAAAAAAAAAAAAAAAAAAAAAAAAAAAAAAAAAAAAAAAAAAAAAAAAAAAAAAAAAAAAAAAAAAAAAAAAAAAAAAAAAAAAAAAAAAAAAAAAAAAAAAAAAAAAAAAAAAAAAAAAAAAAAAAAAAAAAAAAAAAAAAAAAAAAAAAAAAAAAAAAAAAAAAAAAAAAAAAAAAAAAAAAAAAAAAAAAAAAAAAAAAAAAAAAAAAAAAAAAAAAAAAAAAAAAAAAAAAAAAAAAAAAAAAAAAAAAAAAAAAAAAAAAAAAAAAAAAAAAAAAAAAAAAAAAAAAAAAAAAAAAAAAAAAAAAAAACyO34QAAAP90Uk5TAAECAwQFBgcICQoLDA0ODxAREhMUFRYXGBkaGxwdHh8gISIjJCUmJygpKissLS4vMDEyMzQ1Njc4OTo7PD0+P0BBQkNERUZHSElKS0xNTk9QUVJTVFVWV1hZWltcXV5fYGFiY2RlZmdoaWprbG1ub3BxcnN0dXZ3eHl6e3x9fn+AgYKDhIWGh4iJiouMjY6PkJGSk5SVlpeYmZqbnJ2en6ChoqOkpaanqKmqq6ytrq+wsbKztLW2t7i5uru8vb6/wMHCw8TFxsfIycrLzM3Oz9DR0tPU1dbX2Nna29zd3t/g4eLj5OXm5+jp6uvs7e7v8PHy8/T19vf4+fr7/P3+6wjZNQAAPFdJREFUGBntwQuAjlXCB/D/+84Ycw+5DKEmWWkrKtpCQirVRoWQXCptlKSrLlaUpntbbcVGF8JsZYZC4SuJUkhLrJIilbsxpmnuM+//y1ob75znnPOc8zxz//2AaiOmaZtufYc/8My02fMWLf1szYbN23Zl5hQX52Tu2rZ5w5rPli6aN3vaMw8M79utTdMY1Kgqolp0H/bIzA/X/pRLF3J/WvvhzEeGdW8RhRqVU/CELtdNmL7spxJaKflp2fQJ13U5IYgalUb9bre9sjqXnspd/cpt3eqjRsUW1WbQkwt30Dc7Fj45qE0UalRELQa/vL6IZaBo/cuDW6BGBRLZfvTsnSxTO2ePbh+JGuUv8eKHluSwXOQseejiRNQoP8FzJqwsYbkqWTnhnCBqlIOkIakZrBAyUockoUZZiuyc8mWIFUjoy5TOkahRJo4ZkpbFCigrbcgxqOGzhIHvFrDCKnh3YAJq+CauX3oeK7i89H5xqOGDmN5v5bBSyHmrdwxqeCrYY1Y2K5HsWT2CqOGVpuO2sdLZNq4panggoue8YlZKxfN6RqCGneSJ21mJbZ+YjBrGavVZHGIlF1rcpxZqmKg/bjerhN3j6qOGWy0n5bLKyJ3UEjXc6DSnhFVKyZxOqKEpos/nrII+7xOBGmpxt37PKmrLrXGoIZc4bj+rsP3jElHDWdyYDFZxGWPiUEMs+vbdrAZ23x6NGqVF3byd1cT2m6NQ42iRw7axGtk2LBI1fhcc9B2rme8GBVHjv7qsZVnK3rZp/ZoVSxfPT0udNmXKtNS0+YuXrlizftO2bJaltV1Q46DkNPove/3CGc+OHdG36+lNasNR7Sand+07YuyzMxauz6b/0pJRIz4lnz7K37Ro8pir2zeAaw3aXz1m8qJN+fRRfko8qrfA0J30Sc6qqaO6HheApcBxXUdNXZlDn+wcGkA11nE1fRD6Ln1875ZBeCh40lUPpm0uoQ9Wd0R11TyVntv37phOcfBJbIe75+6h51KbozqKuCuH3tr06g0nw3d/uG7q1yF6KueuCFQ7bb+gh0JfPNGrAcrMsZc/tqqEHvqiLaqX6MeK6Jl9swY3RJlrcO3MvfRM0WPRqEa6fEuPlKyacE4Q5ST4p/ErS+iRb7uguqgzJURPZM0c2ADlrP7AmVn0RGhKHVQLV+2gF35NvaI2KoTavWZl0ws7rkLVl5ROD+S+3ScGFUhM77dy6IH0JFRxPffSWv7cAfGocOL6peXR2t6eqMpiJ9PaymGJqKASrltBa5NjUWWd+Q0tZb5wOiq0Pz63n5a+ORNVU/CeQtr5ZHAMKrzogUtpp/CeIKqgpktoZd8zrVFJtHpyD60saYoqp+9+2lg7qDYqkagBa2hjf19ULfGv0cbC7qh0ui4I0cJr8ahCWm2kuYLXT0OldMrUfJrb2ApVxhVZNJb5WBNUWkkTM2gs6wpUDcGUEE39ODoelVrcyK00FUoJogo4dhFN7RgZBY/Vatr+8kE3jrrnwUefnTztzXcXL1+24M1Xnp147y1Del/U4fTkBjHwWq3hP9PUomNR6Z35Aw3tuSMGHok66by+ox59fdG6PSEqFB/4acO7Tw+/4PggvBI9ehcN/XAmKrmheTSTcV8cPJDQfvCj73xbTPfy/z33qZu6NQvAA7FjMmgmbygqs6iXaCZrfCIs1e9807OLfqKtvA1znvhL1yRYSnzwAM28FIVKq9EKGslNqQcbwdOHT/+envru1aEnwkrdlFwaWdEIlVTrrTSS2gzmEi98cHEWffHzrOGnBGCuWSqNbG2NSqlrJk2s7ghTxw2atK6EvtqbPvqsCJjquJomMruiEhpcSAM7hgZgJHjuxH+xbGS9f1/HKBgJDN1BA4WDUemMp4H8lHiYqNv/jX0sU7lLbk2CifiUfBoYj8olajoNpCXDwGn3LitmOSj58MZ6MJCcRgPTo1CJ1PmI7m3pDvfO+Ns2lp/CBYMS4F73LXTvozqoNJI30rXip2PhVtMxG1je8tL6xsCt2KeL6drGZFQSZ+2ma+vawaX4IR+UsELInnl5FFxqt46u7T4LlUKnLLqVf38kXIm4eEYOK5D9r1wYAVci78+nW1mdUAlcmEO3lrWCKy2f2skKZ/ffkuFKq2V0K+dCVHi98ulS1vAA3LhgXogVUvGb7eFGYHgWXcrvhQpuQBFd+rg5XIi+YT0rsI97BuBC84/pUtEAVGjDSuhO4X1B6GsycS8ruG/+Eg19wfsK6U7JMFRgo0N0Z1M76Gs3o5CVwO5x9aGv3Sa6ExqNCmssXXo5Dtp6fsLKIvelltAW9zJdGosK6nG6s+8KaLtkNSuTkvSO0HbFPrrzOCqkx+nOosbQdcEKVjqf9Q5CU+NFdOdxVEBj6UrxmAA0nbeUldL6i6ApMKaYroxFhTOaruzrDk3nLGal9V5raOq+j66MRgUzLEQ31hwPPWfOZ2VW9GJ96Dl+Dd0IDUOFMqCEbrwWDS1N/8nK7sBdUdAS/RrdKBmACqRXEV0oHAEtUff+yirg+97QM6KQLhT1QoVxYT5d2N4BWi75llXEsnbQ0mE7Xci/EBVEpxy6sDwJOk58h1VHaNpx0JG0nC7kdEKFcFYWXZgWBQ0xD+WxSskZHwcNUdPoQtZZqACSd9OFcdBx1Q+scrYPCUDDOLqwOxnlrs5G6iu4FhpOWMwqaXkyNFxbQH0b66CcRX1EfRmdoeGmbFZRv1wPDZ0zqO+jKJSv6dT3XSuoNV3EKmxuA6i1+o76pqNcjae+FfWhNvQAq7Tdl0Ot/qfUNx7laDD1vRkNpcbzWOVNiYdS9JvUNxjlpmshtU0KQOmaDFYD33eAUmAStRV2RTlpnUltT0GpYRqrh+KUWlB6itoyW6NcNNpKbROg1GMPq40vT4HSBGrb2gjlIGoFtd0DleCEEKuRvNEBqNxDbSuiUPZepK7QLVCpv4jVzIfNoHJLiLpeRJkbTF0l10HlTz+y2sm8CirXlVDXYJSxtrnUVNQPKrcUsBoKjYVKvyJqym2LMlV3CzUVXQGFuJmspmZGQ+GKImraUhdlKPgeNZX0h0KrDay2PmsEhf4l1PReEGVnAjWFboBCn19YjW1rA4UbQtQ0AWXmshA1jYLCAyFWa9k9oTCKmkKXoYy0yKSm+yEXOZXVXck9ULifmjJboEzErKOmFMglLmYNvhYFuRRqWheDsjCJmp6HXNOvWOM3y+tD7nlqmoQy0JOaXg1Aqu121viPLX+EVOBVauoJ3zXeSz1zg5C6JJs1/ivrUkgF51LP3sbwWWAx9ayKhdRNxazxP8WjIRW7inoWB+CvO6hnayPIBB5njd98PX/y2KHdT05scFIUpBptpZ474Ks2BdSSeQpkApNZgxvHtYK2UzKppaANfBSzkVoKu0ImMJXV3uaJp8GVroXUsjEG/nmJegZDJvgaq7ttfeDaYOp5Cb65nHrGQyZiOqu5/ImxMDCeei6HT5L2UMt0yETMZDU3/ySYmU4te5Lgj3RqWR4Fich/sno70AumopZTSzp8cRW17EiCROTbrN52tYW5pO3UchV8UGcHdRR2hEStdFZv37eAjQ6F1LGjDrw3hVpGQiJiDqu3dUmwM4JapsBzXULU8QZkXmH1trwObL1GHaEu8Fj0t9SxNgYSj7B6+zYB1qLXUMe30fDWY9Sx/0RIjGT1ltcWHjh+H3U8Bk+1LaKGkkshcXUJq7fh8ET3YmooagsPRXxBHQ9ColsBq7dUeGQMdXwRAe/cRR0fBeGsbRart28T4JHAIuq4C55pnkMN+5vC2Yk7Wc21h2ca76OGnObwSip19IGzhptZzb0LD11BHanwSEfqmApnMatZ3bWHl16mjo7wRGA1NXwbB2czWN0thKfiNlHD6gC8MJQaCtvB2WhWex3grXaF1DAUHojfSQ1j4KxLEau7D+G1+6hhZzzspVDDkiAcNdvDaq8HvBb8mBpSYC05n2qZx8FR7dWs9rKj4LnmWVTLT4atNGq4Ac5eZY258MFwakiDpS7UsATORrAG/wIfBJZRQxdYCa6lWu5JcNSxkDXYDH5olU+1tUHYGEQNY+Co8Q7W4Hr4435qGAQLkd9R7V+RcBJcyhrkE/BH5DqqfRcJc8OoVnwWHI1hjd8MhE/aFVNtGIxFbaPak3DUtoA1ftMNfnmaatuiYOpmqn0fCyfR/2aNg06BX2K3UO1mGIreTrXucPQ8a/xHXfimO9W2R8PM7VRLg6OLQqxxUD58lEa122EkbjeV8pPh5NgdrPEfP8BHyflU2h0HE2OolgJHs2mleO9eaivetj2PZaJo7/c5dOlz+CmFamNgIDGDSjvi4WQoXQplfv/F/701+dF7hvXudsbxiQDiTu21jGoLerSsBSC68Skd/zzotvHPTZ/3ycad+fRIyf7vVy9+c3LK3cN6d217fAKAQJPzHs6nC1/AT/E7qJSRCPfGUW0onCT/QpmSrJ+/XrXknRmTnhh3+7B+l3Y+o0XdIESG7KbcvmshFNOk9dkXXDl45H0pL0xL/2Dl1z9nlVAtZ9fmL5fOmzX5yXG333D1JZ1OT64TgEjLxdS3Bb4aSrVxcC1uP5VWB+AkqX2H87v3uPyqftde95dbRo24YVC/Ky+78PxzzzqtVfJxDY6JgbaT8yiT0xK6AjHHNDjuhD+ceuafzrvgkl59rhl647DBA3r37HHBeX8689RWyU0b1o2LgLYF1HYAvgqsptL+OLh1K9U6ogyMpswolJOkvdQVioCvOlLtVrgUsYVKqSgLgS/o7LMAystgamsAf6VSaUsE3OlDpdxmKBPj6OwOlJt6IepqBX81y6VSH7jzOZVSUDbOo7OzUH6+oq7L4LMUKn0OVzpR6UBdlI1YOsqJQPmZRl3j4bO6B6jUCW7ModKDKCON6agwgPKTTl0L4LcHqTQHLrQsoUpGIspIWzqrh/KznLp2w2+JGVQpaQl9k6g0BmXlajo7DeUm+DO1NYffxlBpErTVz6XKrliUlU/o7EmUm37UdxX8FruLKrn1oWsclUajrJxHiex6KCeBr6jvZfhuNJXGQVOt3VT5ORplpOG/KPMiysk4urA3An6L/pkqu2tBTx8qDUcZafkd5WZFoxxETqEr3eG74VTqAz2LqbK1FsrEyffupcrnvRJRxuoM+oTu/AO+q7WVKouhJTlElZHwWa3m5/a+9ZlvqKVoxWMj/ty2PspA/dN73PDXhYV0a08EvHIiHIykSigZOiZSJSMOPkhMbtdj4G0PvfjmB2v3hOhe3ubl6ZMfHtX/gtMbR8I7UY1P69L7pvufnjb/8635NHUBvPIYHMRlUGUiNERsp8pEeKtn2tL1OwvpndD+TcvTR8BSwsyFX2z9hZ54G15ZfDYcTKTK9gio9aRKfhK8dS79sL82LK2jZ4qbwyOvL4SDpHyq9ITaPKpMhccCP9IPvWHpAXrnCXgkhR3hYCpV5kGpaTEVQqfAa0/TD+/AUkt6Z38svHELP4SDU0JUKG4KlXFUWQDP/Yl+KKwPS/+id4bDG1eSXeBgAVXGQSG4jSpd4b0f6IdbYOk+euebCHjibHIZHHSlyrYg5HpQZQ188CT9sBKWWtBDN8ATTUleCAdrqNIDcrOoMgA+aE9ftIKlNfTOzzHwQmQJ+RkcDKDKLEjFZFNhbxT8sIV+mAhLY+ih++GJDJKXQixqLxWyYyDTmypPwReP0w8/BGAnmR7Kqg8vbCe5Ag6eokpvyLxFlZPhi7Poi/NhaTU99Cy88D1/0x5iJ1PlLUjE5VBhOXzyHf0wFZbupocKToQHNvA3M+FgORVy4uCsH1WGQCwAS4/SD1nRsHMCvZQKD3zB3xQ2gdgQqvSDs3QqHIiF2JhasHMGfdEPllbSQ6F2sPcJD5oIsdgDVEiHo4Q8KrwEseh9vWDpW/phASzdSS8tgb0PeNDeaIi9RIW8BDgZSJUzIDaEabA0kX4oagg7zUP00iWwNp//cT3EzqDKQDh5lwpr4GAVC+rCzun0xW2wtIJe+ioIW2/zP9bBwRoqvAsHxxRQYTjE2pMcDkvf0A9rYGk0PTUctt7gIV0hNpwKBcdAbAgVCutC7DWSn8LSQ/TFKbDTNEQvZTaEpSk85B2I1S2kwhCIpVFhPsTq5fE3LWDnVPriMVj6hJ56A5Ze4yElJ0JsPhXSIBSZRYVBELuLB42HpY30w09B2BlFb3WDnbf5X09DbBAVsiIh0pkKeYkQCn7Pg76HpfH0xQWw0yRET30TBSsL+V+7IiGUmEeFzhBJoUI6xC7mIR1h5xT64nVYWkZv/RVWPuFhl0IsnQopEPmSCv0gNoOHTIalDfRDdizsjKS38lrAxjoelgqxflT4EgJJIcrlxEIo7lcesr827IyjLwbCTlIJvbUQNrbwsNwECMXmUC6UhNKGUOGfEBvIw3rDzsn0xUJYWkqPXQ0Le/g/10Hsn1QYgtJSqXAlxN7nYe/A0lf0Q3Fj2LmZHtuRCHN5/J8lELuSCqkoJZhBuaxoCDUs4mGF9WFnLH1xJ+w0KqHHnoexSP4u1AxC0VmUywgi3DlUmAmxUfzdLbDzB/piHSwtocdKzoKpOjzCvRCbSYVzEG4CFa6F2Er+biUsraUvToed4fTaCphqxiP8G2LXUmECwq2kXKgBhFrySK1g5z764inYaVBMr/WCodY80pkQahCi3EqESSyh3GqITeCRJsLOSfTFjgjY+YBe+3cEzJzNI/0NYqspV5KIo11EhYch9jWP9EMAdtbQFxfDzl/ouetgphuPtD0AoYepcBGONoEKHSF0Eo92PuyMoS9mwE79Inrtx9ow0otHOQNCHakwAUf7gHKZERC6nUebCjsn0hc58bCziJ67E0au5VHGQigik3If4CgR2ZR7C2JLeLSsaNhZTV8MgZ0b6Ll9x8DE/TzKCoi9RbnsCBzpDCpcD6E6RQzTD3bupi8+gJ16RfTcRJh4nUcpORZC11PhDBxpJBWaQKg/w82HnRPoi5KmsPM+PZeTBAMreLSBEGpChZE4Uirl1kFsBsMVNYSdlfTFGNi5jt57CQb28WizILaOcqk40o+UexZCERks5TbYuZO++Dfs1C2k5wpPgmvHMkxGBISepdyPOEIzKvSBUGeWtgZ2mofoizNhZwG99zJcO5fhOkKoDxWa4Xf9qJAEoScpcArsfEZfPAs7Q+i9nLpwawjDPQKhJCr0w++ep9x3EFtPgUdh53b6YnckrNQpoPfugluPMNxaiH1Huefxu9WUmwaheiEK/BSElaYh+uJS2JlH720JwqXZLOU4CE2j3Gr8T0Qu5W6EUC8KdYOdT+mLf8LOIPrgcrj0FUsZCqEbKZcbgcNaUaE1hJ6m0OuwM4q+yEuElcR8em8x3AnkspSXIdSaCq1wWF/K7QtAaDWFsmNhpUmIvrgBdt6h90Inw5XmLO3fEArso1xfHPYw5d6FUEIxxQbCzjL6YinsDKQPXoArF7K0UF0IvUu5h3HYXMrdA6GL6WAh7IykL0LHw0pCHr33SwLcuIUCl0LoHsrNxWFbKNcBQo/QQXFjWGlcQl88ADtz6INb4cZzFJgIoQ6U24L/SghRqiQWQsvp5E7YWUpffAM7/emDbwJw4X0KfASh2BJKhRJwSAfKbYZQdAGdrIWdm+mPs2ElPpc+uAgubKFATiSENlOuAw65iXJpEDqPzk6HlUYl9MXfYWc2ffAu9NUPUaQdhNIodxMOeZFy4yE0is6ehJ0l9MXeWrByNX1QkAhtvSk0CkLjKfciDllOuasg9Cqd7YiAleH0R09YicuhD/pB2wsUehNCV1FuOQ45QLmTIPQvSlwEKw2K6YvZsPMWfTAL2v5NoZ8gdBLlDuA/kiiXE4RIrQJKzICdD+iL/Lqw0oc+yKwFTY3ooClEgjmUS8JB51JuJYTaUiYnHlb+Qn/cBCuxv9IHF0BTPzq4GEIrKXcuDrqGclMhNJRSg2GlfhF98Qns/JM+eB6aJtPBaAhNpdw1OOgByo2C0HOU+gB2FtMfJ8LKVfTBNmj6lg4mQ2gU5R7AQVMp1xVCH1OqpCmsDKM/HoSVmGz64ARoOY5OPoZQV8pNxUFLKHccRAIHKDcGVuoV0Rffwc4s+mAAtFxLJ3sgdBzlluCgrZTKD0DkRCpsgJ336Y8OsHIFffA8tLxCR/UgEsin1Fb8JrKIUpsgdAlVzoSV6+iPSbAS/Qu9txpattBRRwhtolRRJIBkyi2E0C1U+Rus1C2kL/ZHwcoMeq8oBhqOp7MbILSIcskAulFuEoSeocquSFhZQH9cBSs96YPzoGEonT0FocmU6wbgBsrdA6F3qHQprAyhP+bCSu0D9N490DCNzhZAaAzlbgAwkXJXQ2gDlVJhpU4BfVF4LKxMo/fSoOFHOvseQldTbiKAmZRrD5FALpVyE2FlHv1xC6xcRu99BbUWlCiJhkh7ys0E8CHl6kOkCTVcDyuD6I/PYSUqk577FWrDKNMaIg0o9yGAtZTKhlAnalgKK4n59McfYOU1eq8RlFIp0w1C2ZRaC+AnSn0FoSHUEDoeVt6hPx6GlUvovQ5QifmFMgMhtJ5SPwHIpdT7EHqIOu6HlYH0x9YAbNTaT88NgsrVlLoLQgsplQvEUO4NCE2njm9gJSGP/ugMK6/Qcw9CZS6lnobQDMrFoCnlnoXQ+9TSHlbm0B9TYOViem46FOoWUGoWhJ6lXFO0odxYCK2mlr/DygD640A0bETuo9c+gcKNlPsIQmMp1wbdKDccQlupZW8t2IjPpT+uhpUp9NrXUPiIct9AaATluqEv5fpCKJt6esLKbPpjPqxcSK/9BLnjSiiXBaG+lOuL4ZTrCpHa1PQ2rFxNfxQ1hI3IvfRYJuTupEosRLpSbjgeoNxpEDmOmvLrwEZcDv0xClb+QY8VQu5LqrSAyOmUewDPUK4JRNpQ119g5S364wtYuYBei4LMyVTqBJEmlHsG0ygXBZELqGs5rPShT1rDRsRueqwuZB6iUl+I1KbcNMymVDaE+lHbibAR+yv98SisTKLHmkHmOyoNg1A2pWZjHqW2QWgktY2DlX/SHz8GYaMrPXYyJP5EtZEQ2kapeVhEqU0Qup/aNsPKVfRJN9gI7qK3zoLEc1S7C0KbKLUISym1HkIPUd+5sBGTTX+8Bisv0Ftt4CxiF9XGQmg9pZbiM0qtgdDj1PcSrMyiP3bDSmd6qwWcXUQNEyG0hlKfYQ2lVkDoWerLiIKNK+iPNFgJ7qCnGsHZ69TwFIRWUGoNNlBqKYQm04UrYSP6F/qiP+w8T0/FwVF0FjW8AKGllNqAzZRaDKHX6MIcWJlBP+TGw04neikUgKM+1DEVQosptRnbKDUfQrPoQkE92OhJP6TBUuBneigbzuZQxwwIzafUNuyiVBqE0unGzbBR+wB90B+2nqWHfoajY/KpYzaE0ii1C5mUSoXQArrxGaxMo/dy42GrAz30KRxdRy3zIZRKqUzkUGoahD6gKy1h4zJ6Lw3WAj/ROzPhaBG1fAChaZTKQTGlpkDoE7ryEGxEZdJz/WHvGXrnEThpWEwtn0BoCqWKUUypKRBaTle2BGDjNXotNx72zqF3hsHJLdSzHEJTKFWMHEpNg9AiunMebFxCr6XBA4Ft9Ex3OFlOPYshNI1SOcikVCqE5tCdl2Gj1n56rD+88BQ9cxIcNAtRz7sQSqVUJnZRKg1Cs+jOgWjYeIXeyo2HF86mVwpqwcFd1PQmhNIotQvbKDUfQlPpUl/YuJjeSoM3ttIjq+BkDTW9DqH5lNqGzZRaDKHn6dI82IjcR0/1hzeeoEf+DgctqWsyhBZTajM2UGophB6jS0UNYGMKvZQbD2+cRY8MgoNx1PU3CC2l1AasodQKCD1It26FjQvppTR45Xt64w9wsJG6UiC0glJr8Bml1kDobrq1GjYi9tJD/eGVR+mJ/QGItaG2cRBaQ6nPsJRS6yF0C107GTb+Qe/kxsMrZ9ATC+HgUWq7G0LrKbUUiyi1CULX07UU2LiA3kmDdzbTCw/BwVZqGwmhTZRahHmU2gah/nRtWwAWInbTM/3hnUfohcsgdg71DYPQNkrNw2xKZUOoJ93rChsv0Su58fBOG3qhAcSeo76BEMqm1GxMo1xtiFxI916FjS70Shq8tIn2tkAsuJP6roJIbcpNwzOUawKRjnTvlxhYCO6iR/rDSw/TXirEutGF8yHShHLP4AHKnQ6RljQwADZeoDdy4+Gl02hvNMSm0IWWEDmdcg9gOOW6QiSWBt6Djc70Rhq89TWtnQuhWhl0IQ4iXSk3HH0p1xdC++lecSNYCO6gJ/ojXCxsTKCtwmgI/ZkuZEGoL+X6ohvlRkBoPQ3cDhvP0wu58Qj3D9j4I22thNgMuvA1hEZQrhvaUG4shN6ngX/BRid6IQ3hmobawca/aekhCMVk04UPITSWcm3QlHLPQmgqTZwKC4Gf6YH+CHcHn4ONB2npXAj1pRtvQOhZyjVFDOVmQGg8TTwOG8/SXm48wq3inkhYaE07GUEIpdONxyE0g3IxQC6lFkLoRpr4OQgLHWgvDeFakPwzbKynlVkQSsynG7dBaCGlcgH8RKn1ELqERrrDQuBHWuuPcPeTfAs2xtLKIAgNoSt9IbSeUj8BWEupbAidTiPTYeMZ2sqNR7ivSOYdAwutaCPUEELv05VOEMqm1FoAH1KuAUTq0civcbBwDm2lI9wpPOhG2FhLC6shVL+IrpwIkQaU+xDATMq1h1AujQyCjW201B/hHuZBy2Djflp4CELD6U40RNpTbiaAiZS7GkKbaWQxbDxJO7nxCPctDwolw8JJtHAuhD6mK3shdDXlJgK4gXJjILSURkqawEJ72klHuLN4yF9h40saywhC5LgQXfkYQmModwOAbpSbDKHXaeZu2NhKK/0R7kke8i1s3EtjsyB0B915EUKTKdcNQDLlFkHoDpr5CjYep43ceIQJ/Mj/OgcWTqSxQRBaTXdGQGgR5ZIBRBZRahOELqChtrBwFm2kI1xHHvYibHxBQ6GGEDmJLp0HoU2UKorEb7ZSKj8Akfo09DRsfE8L/RHu7zwsIwoW7qGh1RAaS5fqQiSQT6mtOGgJ5Y6D0Haa2RkBC4/SXF48wkTs4v9cAQvJNPQQhDbQne0QOo5yS3DQVMp1hdACGuoBC2fQXDrCXcDfpcPGKpo5FyKn0aVFEOpKuak46AHKjYJQCg3Ngo3NNNYf4abwdwX1YOEuGtkXhMgjdOlpCI2i3AM46BrKTYVQPxrKSYCFR2gqLx5hau3nEUbAwvE08jqEvqdL10FoKuWuwUHnUm4VhE6mqaGw0Iam0hHuzzzSCtj4nCaugMjZdKs9hFZR7lwclES5nCBEgjk0tAQ2NtFQf4SbwaOcBAt30EBuLET+RpdCcRAJ5lAuCf9xgHItIbSShkLNYOFhmsmLR5iYbB5lAiw0C9G9uRAJbqdL30OoJeUO4JDllOsNoZdp6j5YOI1m0hGuD4+2JQALn9K9oRDpQrfmQqg35ZbjkBcpNx5CN9PURtj4mkYGINxshukEC7fRteL6EPkH3RoDofGUexGH3ES5dAh1pLF2sDCeJvLiESYhj2H+AQvHhejWUojU2ke3OkAonXI34ZAOlPsOQgklNPUcLJxCE+kIdy3DZdaGheV063aIXEq3cqMg9B3lOuCQhBClQnEQ+oKm9kTCwgYaGIBw81lKH1i4lW4lQ2Q63foIQnEhSoUS8F9bKNcJQk/Q2J9hYRzdy4tHmHqFLOVdWGhcQnfWQST6F7o1AUKdKLcFh82l3L0Q6kFjb8LCyXQvHeGGsbTC+rDwMd2ZAJHedK07hO6l3Fwc9jDl5kMovoim8o6Bha/o2gCE+5ACt8LCLXTnDIjMpltFcRCaT7mHcVhfyu0PQOhTGhsGC2PpVl48wiSVUGAVLCSV0I1tEEnIo1srIRTYT7m+OKwVFf4IoYdpbBks/IFupSPcrRQ6GRY+ohvPQWQQXXsSQn+kQiscFpFLuZsg1I3GQifAwlq6NADhPqXQI7Awgm50hcgCutYTQjdRLjcC/7Oacm9AKDqPxsbCwv10Jy8eYZqHKLQtAHMNi6kvIxICxxbSrVA9CL1BudX43fOU2wKxJTS2CRZOojvpCHc3HXSBhQ+pbzpE/kLX1kNsC+Wex+/6UaEJhMbS3J9g4Uu6MgDh1tDBq7BwE/VdBZGP6NoLEGpChX74XTMqXA2hjjT3IizcSzfy4hGmJZ1kxcBcg2LqyouDQJMSunYJhK6mQjMc4UfKPQ+hWr/S2L5aMHci3UhHuL/S0QBY+D/qmg+R0XTtl9oQep5yP+JIqZTbALH3ae4KWPiCLgxAuH/T0XuwcCN13QSRlXTtLYhtoFwqjjSSCk0hdCfNpcHC3dSXF48wp9FZcSOYO7aImo6DwIl07xoINaXCSBzpDCoMg9DxNFdQF+ZOoL50hEuhxO2wsJB6voTI/XStsA6EhlHhDBwpIptysyH2Oc0Nh4WV1DYA4b6nxJewcD31TIDIV3Tt/yA2m3LZETjKB5Q7EAmhO2juU1i4k7ry4hHmbEqdCnP1CqmlPQT+SPdugVDkAcp9gKNNoEInCDUL0VwLmGseoqZ0hHuGUo/DwnvUsTMAgYfpXjMIdaLCBBztIipMhNinNDceFj6jpgEIE/iZUj8HYW4odUyByGa69gXEJlLhIhwtsYRyX0DsNpr7HhZup568eITpTIXuMFengBp6QaAd3RsLsS8oV5KIMCspF2oIoSYhmusIc01D1JKOcC9RYToszKdaXiwEnqZ7p0GoYYhyKxFuAhWuhdgymvsHLHxKLQMQJnIPFX6Ng7nBVFsAgcDPdO17iF1LhQkIdw4VZkJsJM1l1oa526gjLx5hLqLSIJg7poBKIyDQme49AbGZVDgH4YIZlMuKhlBSCc31hrnjQtSQjnCvUmkxLLxLpWYQeInutYZQ7SzKZQRRSioVroTYRzT3Diwsp4YBCBOVSaWSJjB3LVXWQiByL137FGJXUCEVpQ2hwj8hNoLmCuvD3K1Uy4tHmF7UcDfMJeZT4WEI9KB710MslQpDUFpSiHI5sRBqWExzI2GucQmV0hEulRq+goW5VDgbAq/Ttex4CMX8SrlQEgS+pEI/iM2luZWw8DGVBiBM7K/U0RbmrqHcrgBKq51F16ZCrA8VvoRIChXSIXYRLbSCuZupkhePMP2o5WmYi8+j1CsQuJLunQuxt6mQApHOVMhLhFBgM81NhLlGJVRIR7g51LIzAubSKXUlBN6iaxshFp9Lhc4QicyiwiCI3UFzPwRgbgkVBiDMMfnU0wPm+lEmPw6lxefStTshNoAKWZEQSqPCfIjVzaW582FuOOXy4hFmCDXNgrm4XEq8D4GBdK2wIcTmUiENYkOoUFgXYq/Q3FSYa1hMqTkI9z415SbA3NuUuAUC8+haGsQS86kwBGLHFFBhOMTOormsaJj7gFIDEKZ+EXVdB3N9KXE8SqtXSNcuhdgwKhQcAwfvUmENHKykuX4w9xfK5MUjzE3UtgTmYnPo6CsIDKNrP0VAbCUV3oWTgVQ5A2JDaG4BzNUvosQchPuI2kLNYO5NOnoEAh/StTshdjpVBsJJQh4VXoJY9D4aK2oIc4spMQBhmpRQ330w15uOzkFpSSV0KzMBYi9QIS8BjtKpcCAWYk/Q3G0wN4zO8hIQZjRd2AhzMb/Swe4gShtF11IgFpNJhXQ460eVIRA7MURja2Du2CI6moNwn9ONdjCXSgevQWAF3cpPgthgqvSDs7gcKiyHg/do7hSYW0hHAxAmma48B3NX0kFvlHYCXfsHHHxChZw4SLxFlZMhdj7NPQZz19NJXgLC3EtX9kTCWPQvFCpIQGn30q2SlhBrTZW3INObKk/BwUc09lMQxuoW0sEchFtLd/4MczMptAgCa+nWbDh4hiq9IROTTYW9URA7n+YugLn36GAAwpxMl96CuV4UuhWltaZrZ0Os9j4qZMdAahZVBsDBEhp7HeaGUiwvAWHG06W8Y2CsdhZFTkBpE+jWR3AwiCqzINeDKmvgoDONZcfCWJ0CCs1BuG/o1o0w9wYF1kNgE93qAQdrqdIDcsFtVOkKB0tobCDMzaPQAIRpS9eWwdzlFHgUpZ1Jt9bBQXeqbAtCYRxVFsDBeTS2EOYGUSQvAWEeo2uhZBiLOsDSOqC0J+nWADhYSJVxUGlaTIXQKXDwIU0VN4axxHwKzEG4H+jeX2HudZayN4hSAj/SpX8FIHYaVYqbQmkeVabCwXk0difMvUOBaxDmXBr4FuYuZSnTUFonunUhHLxOlXlQ60mV/CQ4+ICm1sHcQJaWl4Awz9HEOTBWaz/D9UFpL9ClRXDQpIAqPaEWsZ0qE+GgE42dDmMJeSxlDsIEd9DESzD3KsMUJqKUiN10J9QWDh6jyvYIaJhIlYw4OPiApp6CuTks5RqE6UojGVEw1oNh/g+lXUiXpsNBfCZVJkJHcogqI+HgXJraEQFjAxguLwFh/kEzV8BYrQwe7TaU9irdyT8eDkZTJZQMLYupsrUWHLxBUxfBWHwuw8xBmMh9NJMOc1N5tBNRSu1MuvMkHET9SJXF0NOHSsPhoPEvNDQD5tIY5hqEuYSGCurB2EU8yr9RWi+6s78uHIykUh/oqbWbKj9Hw8HdNJQTD2P9eLS8BISZRlMjYCxyH4/0OEr7J925Cw5idlBldy1oGkel0XBQ6xsaGgJjcTk8yhyEic6iqRUw9zKP1AmlxOXQlW214eAOKo2Drvq5VNkVCwcX0dAHMPc2j3INwlxJcyfBWHceYV8EShlAdwbBQdwequTWh7ZJVBoDJ3NopqQpjPXlkfISEOYtmpsAYxF7+Ls3UNo7dOXTABzcR6VJ0NeyhCoZiXBwQh7NjIGx2F95hDkIE59Lc1sCMDaZv7sapdQpoBuFf4SDxAyqlLSEC3Oo9CCcjKeZDTD3Tx7hGoS5hjY6wVg3/k/hMSjlerryMJyMp9IcuNGJSgfqwkHMDzRzJoxdxd/lJSDMu7TxMoxF7OZhH6K0/6Mbm2rDQb0sKnWCK59TKQVOrqSZv8FYTDb/Zw7C1CmgjczaMPYSD7sdpTQqphtd4CSFSp/DnT5Uym0GJ4tpZHckjM3i/1yDMNfTTl8Y68LDTkIpI+nGK3DSLJdKfeBOxBYqpcJJqzwauRTGruBheQkIs5h23oWx4E4e8jVK+4Qu7K4HJ6lU2hIBl26lWkc4uYNG/glj0b/wv+YgTMNi2ilsAGN/5yFPopTmIbowAE46Uu1WuBW3n0qrA3AQ+IgmchNhbAb/6xqEuZm2boWx83hIZ5RyN114H04Cq6m0Pw6ujaPaUDg5PosmroexnjwkLwFhltHWKhgLbudB+yNQypfUl3MCnAyl2ji4l5hBpR3xcDKUJpbCWO0s/scchGkaorWTYew5HjQTpbSiC3fCSfwOKmUkwsAYqqXA0RwaCB0PY9P5H9cgzJ209wiMdeRB/VHKg9S3LAJOUqg2BibidlMpPxlOGuymgQdg7M88KC8BYVbT3rYATAV+JllUB6V8Q237m8FJcj6VdsfByO1US4OjXjTwDYxFZfI3cxCmBb3QBcb+RvIjlNKW+q6EozSq3Q4z0dup1h2OXqWBs2Hsdf7mGoR5gF54FcbOJXkHSnmc2ibBUXeqbY+GoZuptiUWThJ/oHt/h7FLSeYlIMx6euGXGJgK/Ej+AeECP1DXhhg4id1CtZthKmob1Z6Go/NDdG1vLZiqtZ+cgzB/pDcGwNjT3IRSOlBX3qlw9DTVtkXB2DCqFbeDo6fpXk8Ye4W8BmEepjfeg7E/8WmU8jx1jYCjdsVUGwZzkd9RbV0knEStoGtvw9jFzEtAmM30RnEjGPuhC8JF7KKmOXAUuY5q30XCwiBquB+OmuykW/l1YCpy3xyEOYteuR3G7o9EuAuo6ad6cHQ/NQyCjeBaquW3gqOOhXTrLzA25RqEeZJe+ReMRaGUqdRT0hmOWuVTbW0QVrpQw7IAHN1Mtz6BsfMScLTAj/TMqfBO1H7qGQdHgWXU0AWW0qhhOJy9SrdOhGc60TuPwzuXU8/sABwNp4Y02ErOp1pWcziqvYouPQjPvEDv/ByEZ2ZRy5excNQ8i2r5ybCWQg3LgnDUdDfd2QyvROyih7rDK7G/UseuZnAU/JgaUmAvfic1PABn5xfRnXPhke700nR4pR915J8LZ/dRw854eGAoNRSdDWe30Z1J8MhUeunXOHhkDnUMhrN2hdQwFF4IrKaG7+Lh7A26sj8KnojaT08NgjeOyaeGJ+AsbhM1rA7AEx2p4zU4i1lDV66CJ/5Mby2GN4ZSw7wgnL1MHR3hkVTq6AtnjbfQjTnwxAx6q6QJPLGIahsS4OwK6kiFV5rnUMP+ZnB20m66UHAsPBCTTY/dDS80KKbSvhPhrPE+ashpDs/cRR1Lg3B25i904WZ4oA+9th5euJlKeZ3hLLCIOu6CdyK+oI4HIdEtn/o+gwfS6Lm28MAyqhT+GRJjqOOLCHiobRE1lFwKiT4l1NcS1hLy6LlnYK9ZiAol/SHRvZgaitrCU49Rx/4TITGC+h6CtUH03s4IWLuTKjdC4vh91PEYvBX9LXWsjYHEg9S2NQBbC+iDHrD2BRXugET0Gur4Nhoe6xKijjcg8yK1nQdL9Qrpg1mw1ZIKEyDzGnWEusBzU6hlJCSCb1HXFFi6kX7ITYClv1Lub5AZQS1T4L06O6ijsCMkoj6gpgPRsPMhfXEdLG2k1CsBSHQopI4ddeCDq6hlRxIk4pdQU19YSSqhL5bAzumUejMIiaTt1HIVfJFOLcujIBH9HvXMg5Vb6Y9Qc1h5lDILakEiajm1pMMfSXuoZTpkotKopagBbHxKn9wHK1sokRYFmenUsicJPrmcesZDJuINahkFC8eH6JOvYeMcSrwWAZnx1HM5fPMS9QyGTPBl6lgNC/fQN+1g4Vk6ey4AmcHU8xL8E7ORWgq7Qupv1NEa5r6kb56HueAOOpoAqa6F1LIxBj5qU0AtmadAaiI1pMDYH+ifPZEw1pVOQrdD6pRMailoA1/dQT1bG0HqPqr9GICpcfTR5TD2Mh0UXwepRlup5w74K7CYelbFQmpUiEpdYWojffQWTNXKoFhBb0jFrqKexQH4rPFe6pkbhNQNRVR5FYZOp5/y6sDQZRTLuRhSwbnUs7cxfNeTml4NQKp7JhV+iYGZFPrqRhh6g0L7O0Iq8Co19UQZmERNz0PuD5uoMABmttBXy2AmJpsiG0+C3AvUNAllIWYdNaVArs5iyr0PI2fTX6FkGOlLkfmJkHucmtbFoEy0yKSm+yEX8XdKFSfBxDP02V9hJI0CjwchN46aMlugjFwWoqZRULipiDK3w0DwZ/rsW5hIzGMpeddC4U5qCl2GMjOBmkI3QKFrBiX+BQPn03fnwMBglrLjbCgMp64JKDvB96ippD8UWmykxKlwbxJ99xIMvM9wq5pAYXCImt4LogzV3UJNRVdAIfE9OnsCrkXupe8youBa/SKGmRkNhauLqWlLXZSptrnUVNQPChFPhOhkexBuXcwycCVcG86jldwLlcHF1JTbFmVsMHWVXAeVi3fRyYVw6zWWgXS4tpRH+bkLVIaHqGswytyL1BW6BSoNF9DBdLhU+wDLQEE9uHRcCY80px5U7qS2F1H2olZQ2z1Qui2fQr/GwZ1eLBMj4NLtPELucCiNo7YVUSgHjbZS2wQotdlIoUFwJ5Vl4jO4tIq/W3cKlB6ntq2NUC5aZ1LbU1CKmUyRxXAl9leWjZZwpQV/93xtqAReoLbM1ignXQupbVIASldmsLSSJnCjH8vIBLjyAA/bcxmUgq9SW2FXlJvB1PdmNJSO+4il3Q035rKMbAnAjQ38r8VJUIqdS32DUY7GU9+K+lAK3pfPcOvhwjH5LCud4MKpPCTnjgCUGq2ivvEoV9Op77tWUPvDEoZrC31DWWZehguP8D/eT4baKVupbzrKV9RH1JfRGRoG7+HRnoG+hSwzmbWh73v+Zld/aOiaSX0fRaGc1dlIfQXXQkO9V0I80s4I6KpfxLLTF9rOJhn6Rx1oGFxIfRvroNwl76YL46DjvI08Ug/oGs4y9C60PUP+uyN0jKcLu5NRAZyVRRemRUFDrQfy+LtZ0LWUZaioATQFt+c9UAsaoqbThayzUCF0yqELy5Ogo8Ui/k9uAvQ0KWFZuhWazv/gJOhIWk4Xcjqhgrgwny5s7wAtA3bxsOugZzTL1GpoagwtHbbThfwLUWH0KqILhSOgJfHhbB6yBHo+Z9k6GV4aUUgXinqhAhlQQjdei4aWhs8X8KBQM+hIZhlLgXeiX6MbJQNQoQwL0Y01x0PPCdNL+Jv7oOM+lrFtAXjl+DV0IzQMFcxourKvOzSd+g7JjdCxjmWtCzzSfR9dGY0KZyxdKR4TgKZzl5LtoNaaZe5VeCIwppiujEUF9DjdWdQYunr86zmoTWCZ+yUGHmi8iO48jgrpcbqz7wroClwAtU0sewNg74p9dOdxVFBj6dLLcfDOGSwH78FW3Mt0aSwqrNEhurOpHTzzOMtBcRLstNtEd0KjUYENK6E7hfcF4Y3ADywPt8NG8L5CulMyDBXagCK69HFzeOJclot/wULzj+lS0QBUcL3y6VLW8AA88BzLx6kwFRieRZfye6HCuzCHbi1rBWvBnSwfT8NQq2V0K+dCVAKdsuhW/v2RsNSN5eTXRjAReX8+3crqhErhrN10bV072HmZ5eVZGGi3jq7tPguVRPJGulb8dCws1MpgOVkzBq7FPl1M1zYmo9Ko8xHd29Id5i5leShYdHMzuNd9C937qA4qkajpNJCWDFPTWeb2z7g6EQaS02hgehQql/E0kJ8SDzPTM1mmtjzbNRIm4lPyaWA8Kp3BhTSwY2gARoJn3rXgF5aJ0KoHToOZwNAdNFA4GJVQ10yaWN0RpiL/dO+iHPqqYOXzA5vAVMfVNJHZFZVS6600ktoM5mp1+uuSPPri+1m3nVMb5pql0sjW1qikGq2gkdyUerBR+6zrn1u6nx46sPjhPzeAlbopuTSyohEqraiXaCZrfCJsNb987NvfltDWgdWThpwcgKXEBw/QzEtRqMyG5tFMxn1x8EDcOTe9tGjjL3SvYNPCSXf3OasuPBA7JoNm8oaikjvzBxrac0cMvJJ4ysU3PDh14YYsKoV+Xj5t/JDzmgbhlejRu2johzNR6R27iKZ2jIyCxxJad72sz6C/jL7voSdffDV17uLly96fPe2lJ8ffffOQPpd0PuvkZvVqwVu1hv9MU4uORRUQTAnR1I+j41GpxY3cSlOhlCCqhiuyaCzzsSaotJImZtBY1hWoMlptpLmC109DpXTK1Hya29gKVUj8a7SxsDsqna4LQrTwWjyqlr77aWPtoNqoRKIGrKGN/X1R5TRdQiv7nmmNSqLVk3toZUlTVEHBewpp55PBMajwogcupZ3Ce4Koms78hpYyXzgdFdofn9tPS9+ciSordjKtrRyWiAoq4boVtDY5FlVZz720lj93QDwqnLh+aXm0trcnqrikdHog9+0+MahAYnq/lUMPpCeh6rtqB73wa+oVtVEh1O41K5te2HEVqoU6U0L0RNbMgQ1QzuoPnJlFT4Sm1EF10eVbeqRk1YRzgignwT+NX1lCj3zbBdVI9GNF9My+WYMbosw1uHbmXnqm6LFoVC9tv6CHQl880asBysyxlz+2qoQe+qItqp2Iu3LorU2v3nAyfPeH66Z+HaKncu6KQHXUPJWe2/fumE5x8Elsh7vn7qHnUpujuuq4mj4IfZc+vnfLIDwUPOmqB9M2l9AHqzuiGgsM3Umf5KyaOqrrcQFYChzXddTUlTn0yc6hAVRv8Sn59FH+pkWTx1zdvgFca9D+6jGTF23Kp4/yU+JRIzmN/stev3DGs2NH9O16epPacFS7yeld+44Y++yMheuz6b+0ZNQ4qMtalqXsbZvWr1mxdPH8tNRpU6ZMS02bv3jpijXrN23LZlla2wU1/is46DtWM98NCqLG7yKHbWM1sm1YJGocLerm7awmtt8chRqlRd++m9XA7tujUUMsbkwGq7iMMXGo4Sxx3H5WYfvHJaKGXNyt37OK2nJrHGqoRfT5nFXQ530iUENTpzklrFJK5nRCDTdaTspllZE7qSVquFV/3G5WCbvH1UcNE7X6LA6xkgst7lMLNYwlT9zOSmz7xGTUsBPRc14xK6XieT0jUMMDTcdtY6WzbVxT1PBKsMesbFYi2bN6BFHDUzG938phpZDzVu8Y1PBBXL/0PFZween94lDDNwkD3y1ghVXw7sAE1PDZMUPSslgBZaUNOQY1ykRk55QvQ6xAQl+mdI5EjbKUNCQ1gxVCRuqQJNQoB8FzJqwsYbkqWTnhnCBqlJ/Eix9aksNykbPkoYsTUaP8RbYfPXsny9TO2aPbR6JGBdJi8Mvri1gGita/PLgFalREUW0GPblwB32zY+GTg9pEoUbFVr/bba+szqWncle/clu3+qhRaQRP6HLdhOnLfiqhlZKflk2fcF2XE4KoUTlFteg+7JGZH679KZcu5P609sOZjwzr3iIKNaqKmKZtuvUd/sAz02bPW7T0szUbNm/blZlTXJyTuWvb5g1rPlu6aN7sac88MLxvtzZNY1Bt/D/FlczTAGcA/QAAAABJRU5ErkJggg==;" vertex="1" parent="1">
          <mxGeometry x="260" y="240" width="30" height="30" as="geometry" />
        </mxCell>
        <mxCell id="Mvm1oyz63STRThyXKM0V-20" value="Availability domain layer" style="" parent="0" />
        <mxCell id="JLlgExNKZI0VBw3Vx1Ag-21" value="&lt;font color=&quot;#3f3a36&quot; size=&quot;1&quot;&gt;&lt;b style=&quot;font-size: 13px&quot;&gt;honeybizz.com (Availability Domain)&lt;/b&gt;&lt;/font&gt;" style="text;html=1;align=center;verticalAlign=middle;resizable=0;points=[];autosize=1;" parent="Mvm1oyz63STRThyXKM0V-20" vertex="1">
          <mxGeometry x="170" y="180" width="250" height="30" as="geometry" />
        </mxCell>
        <mxCell id="JLlgExNKZI0VBw3Vx1Ag-2" value="Labels &amp; comment layer" style="" parent="0" />
        <mxCell id="JLlgExNKZI0VBw3Vx1Ag-3" value="&lt;font color=&quot;#3f3a36&quot;&gt;&lt;font&gt;&lt;b style=&quot;font-size: 24px&quot;&gt;HoneyBizz Architecture&amp;nbsp;&lt;/b&gt;&lt;span style=&quot;font-size: 24px&quot;&gt;&lt;b&gt;&lt;br&gt;&lt;/b&gt;&lt;/span&gt;&lt;/font&gt;&lt;font style=&quot;font-size: 18px&quot;&gt;Hosting a microsite on Oracle Cloud Infrastructure - Free tier&lt;/font&gt;&lt;br&gt;&lt;/font&gt;" style="text;html=1;strokeColor=none;fillColor=none;align=left;verticalAlign=middle;whiteSpace=wrap;rounded=0;" parent="JLlgExNKZI0VBw3Vx1Ag-2" vertex="1">
          <mxGeometry x="20" y="34" width="560" height="60" as="geometry" />
        </mxCell>
        <mxCell id="MoFwSUSyxBEC_ITN7L_5-32" value="&lt;font color=&quot;#3f3a36&quot; style=&quot;font-size: 11px&quot;&gt;Object storage serves&lt;br&gt;static content (PDFs, PPTXs, etc.)&lt;/font&gt;" style="whiteSpace=wrap;html=1;labelBackgroundColor=none;fillColor=#fff2cc;strokeColor=#d6b656;" parent="JLlgExNKZI0VBw3Vx1Ag-2" vertex="1">
          <mxGeometry x="160" y="525" width="120" height="60" as="geometry" />
        </mxCell>
        <mxCell id="MoFwSUSyxBEC_ITN7L_5-39" style="edgeStyle=orthogonalEdgeStyle;curved=1;orthogonalLoop=1;jettySize=auto;html=1;exitX=0.25;exitY=0;exitDx=0;exitDy=0;entryX=0;entryY=0.75;entryDx=0;entryDy=0;startArrow=none;startFill=0;endArrow=none;endFill=0;strokeColor=#6c8ebf;fillColor=#dae8fc;dashed=1;dashPattern=1 4;" parent="JLlgExNKZI0VBw3Vx1Ag-2" source="MoFwSUSyxBEC_ITN7L_5-23" target="JLlgExNKZI0VBw3Vx1Ag-41" edge="1">
          <mxGeometry relative="1" as="geometry">
            <Array as="points">
              <mxPoint x="290" y="411" />
              <mxPoint x="290" y="288" />
            </Array>
          </mxGeometry>
        </mxCell>
        <mxCell id="MoFwSUSyxBEC_ITN7L_5-44" style="edgeStyle=orthogonalEdgeStyle;curved=1;orthogonalLoop=1;jettySize=auto;html=1;exitX=1;exitY=0.5;exitDx=0;exitDy=0;entryX=0;entryY=0.5;entryDx=0;entryDy=0;dashed=1;dashPattern=1 4;startArrow=none;startFill=0;endArrow=none;endFill=0;strokeColor=#6c8ebf;fillColor=#dae8fc;" parent="JLlgExNKZI0VBw3Vx1Ag-2" source="MoFwSUSyxBEC_ITN7L_5-23" target="MoFwSUSyxBEC_ITN7L_5-21" edge="1">
          <mxGeometry relative="1" as="geometry" />
        </mxCell>
        <mxCell id="MoFwSUSyxBEC_ITN7L_5-45" style="edgeStyle=orthogonalEdgeStyle;curved=1;orthogonalLoop=1;jettySize=auto;html=1;exitX=0.5;exitY=1;exitDx=0;exitDy=0;entryX=0.5;entryY=0;entryDx=0;entryDy=0;dashed=1;dashPattern=1 4;startArrow=none;startFill=0;endArrow=none;endFill=0;strokeColor=#6c8ebf;fillColor=#dae8fc;" parent="JLlgExNKZI0VBw3Vx1Ag-2" source="MoFwSUSyxBEC_ITN7L_5-21" target="MoFwSUSyxBEC_ITN7L_5-24" edge="1">
          <mxGeometry relative="1" as="geometry">
            <Array as="points">
              <mxPoint x="380" y="510" />
              <mxPoint x="486" y="510" />
            </Array>
          </mxGeometry>
        </mxCell>
        <mxCell id="MoFwSUSyxBEC_ITN7L_5-46" value="&lt;font color=&quot;#3f3a36&quot; style=&quot;font-size: 11px&quot;&gt;Automated HTTP health checks&lt;/font&gt;" style="whiteSpace=wrap;html=1;labelBackgroundColor=none;fillColor=#fff2cc;strokeColor=#d6b656;" parent="JLlgExNKZI0VBw3Vx1Ag-2" vertex="1">
          <mxGeometry x="290" y="525" width="110" height="60" as="geometry" />
        </mxCell>
        <mxCell id="MoFwSUSyxBEC_ITN7L_5-49" style="edgeStyle=orthogonalEdgeStyle;curved=1;orthogonalLoop=1;jettySize=auto;html=1;exitX=0.5;exitY=1;exitDx=0;exitDy=0;entryX=0.5;entryY=0;entryDx=0;entryDy=0;startArrow=none;startFill=0;endArrow=none;endFill=0;strokeColor=#d6b656;fillColor=#fff2cc;" parent="JLlgExNKZI0VBw3Vx1Ag-2" source="MoFwSUSyxBEC_ITN7L_5-23" target="MoFwSUSyxBEC_ITN7L_5-46" edge="1">
          <mxGeometry relative="1" as="geometry">
            <Array as="points">
              <mxPoint x="315" y="510" />
              <mxPoint x="348" y="510" />
              <mxPoint x="348" y="520" />
            </Array>
          </mxGeometry>
        </mxCell>
        <mxCell id="Mvm1oyz63STRThyXKM0V-18" value="Networking layer" style="" parent="0" />
        <mxCell id="Mvm1oyz63STRThyXKM0V-7" value="&lt;div style=&quot;text-align: left&quot;&gt;&lt;span style=&quot;color: rgb(189 , 118 , 82)&quot;&gt;10.0.0.0/16&lt;/span&gt;&lt;b style=&quot;font-size: 13px ; color: rgb(189 , 118 , 82)&quot;&gt;&lt;br&gt;&lt;/b&gt;&lt;/div&gt;&lt;div style=&quot;text-align: left&quot;&gt;&lt;b style=&quot;font-size: 13px ; color: rgb(189 , 118 , 82)&quot;&gt;Virtual Cloud Network&lt;/b&gt;&lt;/div&gt;" style="text;html=1;align=center;verticalAlign=middle;resizable=0;points=[];autosize=1;rotation=-90;" parent="Mvm1oyz63STRThyXKM0V-18" vertex="1">
          <mxGeometry x="-19" y="295" width="150" height="30" as="geometry" />
        </mxCell>
        <mxCell id="Mvm1oyz63STRThyXKM0V-6" value="" style="rounded=0;whiteSpace=wrap;html=1;fillColor=none;dashed=1;strokeWidth=2;strokeColor=#BC7450;" parent="Mvm1oyz63STRThyXKM0V-18" vertex="1">
          <mxGeometry x="75" y="211.5" width="430" height="168.5" as="geometry" />
        </mxCell>
        <mxCell id="Mvm1oyz63STRThyXKM0V-8" value="" style="rounded=0;whiteSpace=wrap;html=1;fillColor=none;dashed=1;strokeWidth=2;strokeColor=#BC7450;dashPattern=1 1;" parent="Mvm1oyz63STRThyXKM0V-18" vertex="1">
          <mxGeometry x="127" y="223" width="328" height="147" as="geometry" />
        </mxCell>
        <mxCell id="Mvm1oyz63STRThyXKM0V-32" value="&lt;span style=&quot;color: rgb(189 , 118 , 82)&quot;&gt;10.0.0.0/24&lt;/span&gt;&lt;font color=&quot;#bd7652&quot;&gt;&lt;span style=&quot;font-size: 13px&quot;&gt;&lt;b&gt;&lt;br&gt;Public subnet&lt;/b&gt;&lt;/span&gt;&lt;/font&gt;" style="text;html=1;align=left;verticalAlign=middle;resizable=0;points=[];autosize=1;rotation=-90;" parent="Mvm1oyz63STRThyXKM0V-18" vertex="1">
          <mxGeometry x="57" y="304" width="100" height="30" as="geometry" />
        </mxCell>
        <mxCell id="Mvm1oyz63STRThyXKM0V-35" value="" style="shape=image;verticalLabelPosition=bottom;verticalAlign=top;imageAspect=0;aspect=fixed;image=data:image/svg+xml,PHN2ZyB2ZXJzaW9uPSIxLjEiIGlkPSJEUkciIHhtbG5zPSJodHRwOi8vd3d3LnczLm9yZy8yMDAwL3N2ZyIgeG1sbnM6eGxpbms9Imh0dHA6Ly93d3cudzMub3JnLzE5OTkveGxpbmsiIHg9IjBweCIgeT0iMHB4IiB2aWV3Qm94PSIwIDAgMTYxLjkgMTYyIiBlbmFibGUtYmFja2dyb3VuZD0ibmV3IDAgMCAxNjEuOSAxNjIiIHhtbDpzcGFjZT0icHJlc2VydmUiPiYjeGE7PHBhdGggZmlsbD0iIzMxMkQyQSIgZD0iTTE1My41LDY4LjJjMC0xMC41LTguNS0xOS0xOS0xOWMtMy45LDAtNy41LDEuMi0xMC41LDMuMkw5OC43LDMzLjljMC4zLTEuNCwwLjUtMi44LDAuNS00LjMgIGMwLTEwLjUtOC41LTE5LTE5LTE5cy0xOSw4LjUtMTksMTljMCwxLjcsMC4yLDMuMywwLjcsNC45TDM3LjcsNTIuMWMtMi45LTEuOC02LjQtMi45LTEwLTIuOWMtMTAuNSwwLTE5LDguNS0xOSwxOSAgYzAsMTAsNy43LDE4LjEsMTcuNSwxOC45bDkuMiwyOC4yYy00LjgsMy41LTgsOS4xLTgsMTUuNGMwLDEwLjUsOC41LDE5LDE5LDE5YzcuOSwwLDE0LjgtNC45LDE3LjYtMTEuOWgzNC4zICBjMi44LDYuOSw5LjYsMTEuOSwxNy42LDExLjljMTAuNSwwLDE5LTguNSwxOS0xOWMwLTYuNy0zLjUtMTIuNS04LjctMTUuOWw5LTI3LjdDMTQ1LjMsODYuOCwxNTMuNSw3OC40LDE1My41LDY4LjJ6IE0xMzQuNSw1OS4yICBjNSwwLDksNCw5LDlzLTQsOS05LDlzLTktNC05LTlTMTI5LjYsNTkuMiwxMzQuNSw1OS4yeiBNMTE4LjQsNTguMmMtMS44LDIuOS0yLjksNi4zLTIuOSwxMGMwLDAuNiwwLDEuMiwwLjEsMS44TDk2LjcsNzYgIGMtMi42LTQuNS02LjktNy44LTEyLTkuMVY0OC4xYzQuMi0xLDcuOS0zLjUsMTAuNS02LjhMMTE4LjQsNTguMnogTTYwLjgsMTE4LjRsMTEuOS0xNS42YzIuMywxLDQuOCwxLjUsNy41LDEuNSAgYzMuMiwwLDYuMi0wLjgsOC44LTIuMmwxMi40LDE2LjJjLTIuNywzLjEtNC4zLDcuMS00LjUsMTEuNUg2NS4zQzY1LjEsMTI1LjUsNjMuNCwxMjEuNSw2MC44LDExOC40eiBNODAuMiw3Ni40YzUsMCw5LDQsOSw5ICBzLTQsOS05LDljLTUsMC05LTQtOS05Uzc1LjIsNzYuNCw4MC4yLDc2LjR6IE04MC4yLDIwLjZjNSwwLDksNCw5LDlzLTQsOS05LDljLTUsMC05LTQtOS05Uzc1LjIsMjAuNiw4MC4yLDIwLjZ6IE03Ni43LDQ4LjN2MTguNCAgYy01LjMsMS05LjksNC4yLTEyLjYsOC43bC0xNy40LTYuMWMwLTAuNCwwLjEtMC44LDAuMS0xLjJjMC0zLjktMS4yLTcuNC0zLjEtMTAuNGwyMi0xNkM2OC4zLDQ1LjEsNzIuMiw0Ny41LDc2LjcsNDguM3ogTTE4LjcsNjguMiAgYzAtNSw0LTksOS05czksNCw5LDlzLTQsOS05LDlTMTguNyw3My4xLDE4LjcsNjguMnogTTM0LjIsODZjNC40LTEuNiw4LjEtNC44LDEwLjMtOC45TDYxLjMsODNjLTAuMSwwLjgtMC4yLDEuNi0wLjIsMi40ICBjMCw0LjksMS45LDkuNCw1LDEyLjhsLTExLjgsMTUuNGMtMi41LTEuMi01LjItMS44LTguMS0xLjhjLTEuMywwLTIuNSwwLjEtMy43LDAuNEwzNC4yLDg2eiBNNDYuMywxMzkuOGMtNSwwLTktNC05LTlzNC05LDktOSAgczksNCw5LDlTNTEuMywxMzkuOCw0Ni4zLDEzOS44eiBNMTE1LjgsMTM5LjhjLTUsMC05LTQtOS05czQtOSw5LTlzOSw0LDksOVMxMjAuOCwxMzkuOCwxMTUuOCwxMzkuOHogTTExNS44LDExMS43ICBjLTIuOSwwLTUuNiwwLjctOC4xLDEuOEw5NS4xLDk3LjFjMi41LTMuMiw0LTcuMyw0LTExLjdjMC0wLjYsMC0xLjItMC4xLTEuN2wxOC45LTYuMWMyLjEsMy42LDUuMyw2LjUsOS4yLDguMmwtOC41LDI2LjMgIEMxMTcuOCwxMTEuOCwxMTYuOCwxMTEuNywxMTUuOCwxMTEuN3oiLz4mI3hhOzwvc3ZnPg==;dashed=1;dashPattern=1 1;strokeColor=#BC7450;strokeWidth=2;fillColor=none;imageBackground=#F4F3EF;" parent="Mvm1oyz63STRThyXKM0V-18" vertex="1">
          <mxGeometry x="55" y="193" width="40" height="40" as="geometry" />
        </mxCell>
        <mxCell id="JLlgExNKZI0VBw3Vx1Ag-41" value="Public LB&#xa;10Mbps-Micro" style="shape=image;verticalLabelPosition=bottom;verticalAlign=top;imageAspect=0;aspect=fixed;image=data:image/svg+xml,PHN2ZyB2ZXJzaW9uPSIxLjEiIGlkPSJMb2FkX0JhbGFuY2VyIiB4bWxucz0iaHR0cDovL3d3dy53My5vcmcvMjAwMC9zdmciIHhtbG5zOnhsaW5rPSJodHRwOi8vd3d3LnczLm9yZy8xOTk5L3hsaW5rIiB4PSIwcHgiIHk9IjBweCIgdmlld0JveD0iMCAwIDE2MS45IDE2MiIgZW5hYmxlLWJhY2tncm91bmQ9Im5ldyAwIDAgMTYxLjkgMTYyIiB4bWw6c3BhY2U9InByZXNlcnZlIj4mI3hhOzxwYXRoIGZpbGw9IiMzMTJEMkEiIGQ9Ik0xMjIuNSwxMTIuOEw5Mi42LDg0LjdoMzYuMnY2LjZsMTgtOS45bC0xOC05Ljl2NS4ySDkyLjNsMzAuMi0yOC40bDQuMSw0LjRsNi4zLTE5LjZMMTEzLDM4LjJsNCw0LjIgIEw4OCw2OS43VjMwLjZIMjguOHY0Ni4xSDExLjF2OGgxNy43djQ2LjlIODhWOTEuM2wyOSwyNy4zbC00LDQuMmwxOS45LDUuMWwtNi4zLTE5LjZMMTIyLjUsMTEyLjh6IE03OSwxMjIuNUgzNy44Vjg0LjdoMjIuN3Y2LjYgIGwxOC05LjlsLTE4LTkuOXY1LjJIMzcuOFYzOS42SDc5VjEyMi41eiIvPiYjeGE7PC9zdmc+;dashed=1;dashPattern=1 4;labelBackgroundColor=none;strokeColor=#03698d;strokeWidth=2;fillColor=none;align=center;imageBackground=#DFDDD9;" parent="Mvm1oyz63STRThyXKM0V-18" vertex="1">
          <mxGeometry x="319" y="259" width="37" height="38" as="geometry" />
        </mxCell>
        <mxCell id="MoFwSUSyxBEC_ITN7L_5-29" style="edgeStyle=orthogonalEdgeStyle;rounded=0;orthogonalLoop=1;jettySize=auto;html=1;exitX=0;exitY=0.5;exitDx=0;exitDy=0;entryX=1;entryY=0.5;entryDx=0;entryDy=0;endArrow=none;endFill=0;" parent="Mvm1oyz63STRThyXKM0V-18" target="JLlgExNKZI0VBw3Vx1Ag-41" edge="1">
          <mxGeometry relative="1" as="geometry">
            <mxPoint x="610" y="278" as="sourcePoint" />
          </mxGeometry>
        </mxCell>
        <mxCell id="5z3BjopYQKt2J5N__x-G-5" value="Internet&#xa;Gateway" style="shape=image;verticalLabelPosition=bottom;verticalAlign=top;imageAspect=0;aspect=fixed;image=data:image/svg+xml,PHN2ZyB2ZXJzaW9uPSIxLjEiIGlkPSJJbnRlcm5ldF9HYXRld2F5IiB4bWxucz0iaHR0cDovL3d3dy53My5vcmcvMjAwMC9zdmciIHhtbG5zOnhsaW5rPSJodHRwOi8vd3d3LnczLm9yZy8xOTk5L3hsaW5rIiB4PSIwcHgiIHk9IjBweCIgdmlld0JveD0iMCAwIDE2MS45IDE2MiIgZW5hYmxlLWJhY2tncm91bmQ9Im5ldyAwIDAgMTYxLjkgMTYyIiB4bWw6c3BhY2U9InByZXNlcnZlIj4mI3hhOzxnPiYjeGE7CTxyZWN0IHg9Ijc3LjQiIHk9IjcxLjkiIGZpbGw9IiMzMTJEMkEiIHdpZHRoPSI2LjMiIGhlaWdodD0iMi44Ii8+JiN4YTsJPHJlY3QgeD0iNzcuNCIgeT0iNjYuMyIgZmlsbD0iIzMxMkQyQSIgd2lkdGg9IjYuMyIgaGVpZ2h0PSIyLjgiLz4mI3hhOwk8cGF0aCBmaWxsPSIjMzEyRDJBIiBkPSJNMTA0LjcsMjkuNGMtMi40LTQuNy03LjktMTAuMi0xNy4zLTguOGMtMy41LTMuNS0xMC4yLTcuNC0xOC44LTQuOWMtMS40LDAuMy03LjgsMi40LTExLjEsMTAuNSAgIEM1MiwyNy41LDQ0LjEsMzIsNDIuMiw0Mi44bDAsMC4yYzAsMC4zLTEsOC4xLDMuOSwxNC4xYzMuMSwzLjgsNy43LDUuOSwxMy42LDYuNGwwLjEsMGw0Mi41LDBjMC4xLDAsMC4yLDAsMC4yLDAgICBjNSwwLDE0LjgtMy4zLDE2LjktMTYuMmwwLTAuNEMxMTkuOSw0MS42LDExNy4xLDMxLjYsMTA0LjcsMjkuNHogTTEwMi40LDU1LjlIODMuNXYtOS40aDkuNEw4MC40LDMwLjRMNjguMyw0Ni42aDguOXY5LjRINjAuMSAgIGMtMy43LTAuMy02LjQtMS41LTguMS0zLjZjLTIuNy0zLjItMi40LTcuOC0yLjMtOC40YzEuOC05LjYsMTAtMTAuNiwxMC45LTEwLjdsMi42LTAuMmwwLjctMi41YzEuOC02LjQsNi4yLTcuNSw2LjMtNy41bDAuMy0wLjEgICBjNy41LTIuMiwxMS44LDMuMywxMi4yLDMuOWwxLjUsMi4ybDIuNS0wLjdjOC41LTIuMiwxMS4xLDQuMywxMS42LDUuNmwwLjgsMi40bDIuNSwwLjJjOS44LDAuOCwxMC4zLDcuOSwxMC4zLDkuNiAgIEMxMTAuMyw1NS43LDEwMy4zLDU1LjksMTAyLjQsNTUuOXoiLz4mI3hhOwk8cG9seWdvbiBmaWxsPSIjMzEyRDJBIiBwb2ludHM9Ijc0LjMsMTAwLjYgNzcuNSwxMDAuNiA3Ny41LDEyMy40IDc0LjIsMTIzLjQgODAuNiwxMzUgODcsMTIzLjQgODMuOCwxMjMuNCA4My44LDEwMC42IDg3LDEwMC42ICAgIDgwLjYsODkuMSAgIi8+JiN4YTsJPHBhdGggZmlsbD0iIzMxMkQyQSIgZD0iTTgwLjUsNzcuMWMtMTksMC0zNC41LDE1LjctMzQuNSwzNXMxNS41LDM1LDM0LjUsMzVjMTksMCwzNC41LTE1LjcsMzQuNS0zNVM5OS41LDc3LjEsODAuNSw3Ny4xeiAgICBNODYuNCwxMTIuMWwxMS42LDYuNHYtMy4yaDkuMmMtMS41LDEzLjctMTMsMjQuNC0yNi44LDI0LjRjLTEzLjksMC0yNS4zLTEwLjctMjYuOC0yNC40aDkuN3YzLjJMNzUsMTEybC0xMS42LTYuNHYzLjJoLTkuNyAgIGMxLjYtMTMuNiwxMy0yNC4zLDI2LjgtMjQuM2MxMy44LDAsMjUuMiwxMC42LDI2LjgsMjQuM0g5OHYtMy4yTDg2LjQsMTEyLjF6Ii8+JiN4YTs8L2c+JiN4YTs8L3N2Zz4=;labelBackgroundColor=#F4F3EF;imageBackground=#F4F3EF;" parent="Mvm1oyz63STRThyXKM0V-18" vertex="1">
          <mxGeometry x="471" y="232" width="69" height="68" as="geometry" />
        </mxCell>
        <mxCell id="Mvm1oyz63STRThyXKM0V-19" value="Compute &amp; service layer" style="" parent="0" />
        <mxCell id="JLlgExNKZI0VBw3Vx1Ag-29" value="IAM" style="shape=image;verticalLabelPosition=bottom;verticalAlign=top;imageAspect=0;aspect=fixed;image=data:image/svg+xml,PHN2ZyB2ZXJzaW9uPSIxLjEiIGlkPSJJRF9BY2Nlc3MiIHhtbG5zPSJodHRwOi8vd3d3LnczLm9yZy8yMDAwL3N2ZyIgeG1sbnM6eGxpbms9Imh0dHA6Ly93d3cudzMub3JnLzE5OTkveGxpbmsiIHg9IjBweCIgeT0iMHB4IiB2aWV3Qm94PSIwIDAgMTYxLjkgMTYyIiBlbmFibGUtYmFja2dyb3VuZD0ibmV3IDAgMCAxNjEuOSAxNjIiIHhtbDpzcGFjZT0icHJlc2VydmUiPiYjeGE7PGc+JiN4YTsJPHBhdGggZmlsbD0iIzMxMkQyQSIgZD0iTTYwLjMsMzguNmMwLTcuNS02LjEtMTMuNy0xMy43LTEzLjdTMzMsMzEuMSwzMywzOC42czYuMSwxMy43LDEzLjcsMTMuN1M2MC4zLDQ2LjEsNjAuMywzOC42eiBNNDAsMzguNiAgIGMwLTMuNywzLTYuNyw2LjctNi43czYuNywzLDYuNyw2LjdzLTMsNi43LTYuNyw2LjdTNDAsNDIuMyw0MCwzOC42eiIvPiYjeGE7CTxwYXRoIGZpbGw9IiMzMTJEMkEiIGQ9Ik02Ny44LDc1Ljh2LTEuNmMwLTEwLjctOC43LTE5LjMtMTkuMy0xOS4zaC0zLjZjLTEwLjcsMC0xOS4zLDguNy0xOS4zLDE5LjN2MS42aDd2LTEuNiAgIGMwLTYuOCw1LjUtMTIuMywxMi4zLTEyLjNoMy42YzYuOCwwLDEyLjMsNS41LDEyLjMsMTIuM3YxLjZINjcuOHoiLz4mI3hhOwk8cG9seWdvbiBmaWxsPSIjMzEyRDJBIiBwb2ludHM9IjE4LjIsODIuNCAxOC4yLDE4LjMgMTE1LjMsMTguMyAxMTUuMyw2My4zIDEyMC41LDYxLjEgMTI0LjMsNjIuNyAxMjQuMyw5LjMgOS4yLDkuMyA5LjIsOTEuNCAgICA4Myw5MS40IDgzLDgyLjQgICIvPiYjeGE7CTxwb2x5Z29uIGZpbGw9IiMzMTJEMkEiIHBvaW50cz0iOTMuNiw3MC4zIDk2LjcsNjcuMiA5Miw2Mi41IDk3LDU3LjYgOTMuOSw1NC41IDg5LDU5LjUgODQuMyw1NC44IDgxLjIsNTcuOCA4NS45LDYyLjUgODAuOSw2Ny41ICAgIDg0LDcwLjYgODksNjUuNiAgIi8+JiN4YTsJPHBvbHlnb24gZmlsbD0iIzMxMkQyQSIgcG9pbnRzPSI4NC4yLDM1LjMgODAuOSwzOC4xIDg3LjcsNDYuMiAxMDAuMiwzMi40IDk3LDI5LjUgODcuOCwzOS42ICAiLz4mI3hhOwk8cGF0aCBmaWxsPSIjMzEyRDJBIiBkPSJNMTUzLDExMS41di0zMGwtMzIuOC0xNC4xTDg3LjQsODEuNWwwLjEsMzEuOGwwLjEsMC40YzQuOCwyNy43LDI5LjksMzcuOSwzMC45LDM4LjRsMS45LDAuOGwxLjgtMC45ICAgQzE1MywxMzYuMiwxNTMsMTEyLjUsMTUzLDExMS41eiBNMTQ0LDExMS42YzAsMC43LTAuMywxNi0xOS40LDI4LjZ2LTM3LjJoLTl2MzcuM2MtNi42LTQuMy0xNi4zLTEzLTE5LTI3LjdsLTAuMS0yNS4xbDE5LjEtOC4yVjk1ICAgaDlWNzkuMWwxOS40LDguM1YxMTEuNnoiLz4mI3hhOzwvZz4mI3hhOzwvc3ZnPg==;align=center;labelBackgroundColor=#F4F3EF;" parent="Mvm1oyz63STRThyXKM0V-19" vertex="1">
          <mxGeometry x="430" y="412" width="46" height="46" as="geometry" />
        </mxCell>
        <mxCell id="MoFwSUSyxBEC_ITN7L_5-6" style="edgeStyle=orthogonalEdgeStyle;rounded=0;orthogonalLoop=1;jettySize=auto;html=1;exitX=0.5;exitY=1;exitDx=0;exitDy=0;entryX=0.5;entryY=0;entryDx=0;entryDy=0;endArrow=none;endFill=0;dashed=1;fillColor=#dae8fc;strokeColor=#6c8ebf;dashPattern=1 4;" parent="Mvm1oyz63STRThyXKM0V-19" source="MoFwSUSyxBEC_ITN7L_5-1" target="5z3BjopYQKt2J5N__x-G-9" edge="1">
          <mxGeometry relative="1" as="geometry" />
        </mxCell>
        <mxCell id="MoFwSUSyxBEC_ITN7L_5-4" style="edgeStyle=orthogonalEdgeStyle;rounded=0;orthogonalLoop=1;jettySize=auto;html=1;exitX=0;exitY=0.5;exitDx=0;exitDy=0;entryX=1;entryY=0.5;entryDx=0;entryDy=0;endArrow=none;endFill=0;" parent="Mvm1oyz63STRThyXKM0V-19" source="JLlgExNKZI0VBw3Vx1Ag-41" target="MoFwSUSyxBEC_ITN7L_5-1" edge="1">
          <mxGeometry relative="1" as="geometry" />
        </mxCell>
        <mxCell id="MoFwSUSyxBEC_ITN7L_5-1" value="VM&#xa;E2.1.Micro" style="shape=image;verticalLabelPosition=bottom;verticalAlign=top;imageAspect=0;aspect=fixed;image=data:image/svg+xml,PHN2ZyB2ZXJzaW9uPSIxLjEiIGlkPSJWTSIgeG1sbnM9Imh0dHA6Ly93d3cudzMub3JnLzIwMDAvc3ZnIiB4bWxuczp4bGluaz0iaHR0cDovL3d3dy53My5vcmcvMTk5OS94bGluayIgeD0iMHB4IiB5PSIwcHgiIHZpZXdCb3g9IjAgMCAxNjEuOSAxNjIiIGVuYWJsZS1iYWNrZ3JvdW5kPSJuZXcgMCAwIDE2MS45IDE2MiIgeG1sOnNwYWNlPSJwcmVzZXJ2ZSI+JiN4YTs8cGF0aCBmaWxsPSIjMzEyRDJBIiBkPSJNNjAuNCw5MC45SDMzLjdWNjQuMWgyNi43VjkwLjl6IE00MC43LDgzLjloMTIuN1Y3MS4xSDQwLjdWODMuOXogTTEyNy42LDkwLjloLTI2LjdWNjQuMWgyNi43VjkwLjl6ICAgTTEwNy44LDgzLjloMTIuN1Y3MS4xaC0xMi43VjgzLjl6IE05My45LDkwLjlINjcuMlY2NC4xaDI2LjdWOTAuOXogTTc0LjIsODMuOWgxMi43VjcxLjFINzQuMlY4My45eiBNNjAuNCw1Ny44SDMzLjdWMzEuMWgyNi43ICBWNTcuOHogTTQwLjcsNTAuOGgxMi43VjM4LjFINDAuN1Y1MC44eiBNMTI3LjYsNTcuOGgtMjYuN1YzMS4xaDI2LjdWNTcuOHogTTEwNy44LDUwLjhoMTIuN1YzOC4xaC0xMi43VjUwLjh6IE05My45LDU3LjhINjcuMlYzMS4xICBoMjYuN1Y1Ny44eiBNNzQuMiw1MC44aDEyLjdWMzguMUg3NC4yVjUwLjh6IE0xNTIuOCwxNTIuOUg5VjkuMmgxNDMuOFYxNTIuOXogTTE4LDE0My45aDEyNS44VjE4LjJIMThWMTQzLjl6IE0xMjkuMSwxMzIuM0gzMi45ICBWOTcuNGg5Ni4zVjEzMi4zeiBNNDEuOSwxMjMuM2g3OC4zdi0xNi45SDQxLjlWMTIzLjN6IE0xMDUuOCwxMTAuMmMtMi42LDAtNC43LDIuMS00LjcsNC43YzAsMi42LDIuMSw0LjcsNC43LDQuNyAgYzIuNiwwLDQuNy0yLjEsNC43LTQuN0MxMTAuNSwxMTIuMywxMDguNCwxMTAuMiwxMDUuOCwxMTAuMnoiLz4mI3hhOzwvc3ZnPg==;labelBackgroundColor=#dfddd9;" parent="Mvm1oyz63STRThyXKM0V-19" vertex="1">
          <mxGeometry x="226" y="260" width="36" height="36" as="geometry" />
        </mxCell>
        <mxCell id="MoFwSUSyxBEC_ITN7L_5-14" value="" style="shape=image;verticalLabelPosition=bottom;verticalAlign=top;imageAspect=0;aspect=fixed;image=data:image/svg+xml,PHN2ZyB2ZXJzaW9uPSIxLjEiIGlkPSJHcm91cHMiIHhtbG5zPSJodHRwOi8vd3d3LnczLm9yZy8yMDAwL3N2ZyIgeG1sbnM6eGxpbms9Imh0dHA6Ly93d3cudzMub3JnLzE5OTkveGxpbmsiIHg9IjBweCIgeT0iMHB4IiB2aWV3Qm94PSIwIDAgMTYxLjkgMTYyIiBlbmFibGUtYmFja2dyb3VuZD0ibmV3IDAgMCAxNjEuOSAxNjIiIHhtbDpzcGFjZT0icHJlc2VydmUiPiYjeGE7PHBhdGggZmlsbD0iIzMxMkQyQSIgZD0iTTEyOC4xLDg2LjVjLTguOCwwLTE1LjktNy4xLTE1LjktMTUuOXM3LjEtMTUuOSwxNS45LTE1LjljOC44LDAsMTUuOSw3LjEsMTUuOSwxNS45UzEzNi44LDg2LjUsMTI4LjEsODYuNXogICBNMTI4LjEsNjIuN2MtNC4zLDAtNy45LDMuNS03LjksNy45czMuNSw3LjksNy45LDcuOWM0LjMsMCw3LjktMy41LDcuOS03LjlTMTMyLjQsNjIuNywxMjguMSw2Mi43eiBNMzMuNyw4Ni45ICBjLTguOCwwLTE1LjktNy4xLTE1LjktMTUuOVMyNSw1NS4yLDMzLjcsNTUuMnMxNS45LDcuMSwxNS45LDE1LjlTNDIuNSw4Ni45LDMzLjcsODYuOXogTTMzLjcsNjMuMmMtNC4zLDAtNy45LDMuNS03LjksNy45ICBzMy41LDcuOSw3LjksNy45czcuOS0zLjUsNy45LTcuOVMzOC4xLDYzLjIsMzMuNyw2My4yeiBNMTAzLjQsMTI0LjhoOHYwTDEwMy40LDEyNC44TDEwMy40LDEyNC44eiBNMTMwLjIsOTAuNWgtNC4yICBjLTUuNSwwLTEwLjYsMi0xNC41LDUuM2MxLjcsMi4xLDMuMSw0LjQsNC4zLDYuOWMyLjYtMi42LDYuMi00LjIsMTAuMi00LjJoNC4yYzgsMCwxNC41LDYuNSwxNC41LDE0LjV2MTEuOGg4VjExMyAgQzE1Mi43LDEwMC42LDE0Mi42LDkwLjUsMTMwLjIsOTAuNXogTTM1LjgsOTAuNWgtNC4yYy0xMi40LDAtMjIuNSwxMC4xLTIyLjUsMjIuNXYxMS44aDhWMTEzYzAtOCw2LjUtMTQuNSwxNC41LTE0LjVoNC4yICBjNC4xLDAsNy44LDEuNywxMC41LDQuNWMxLjEtMi41LDIuNi00LjgsNC4zLTdDNDYuNiw5Mi42LDQxLjUsOTAuNSwzNS44LDkwLjV6IE01MC40LDEyNC44aDh2MEw1MC40LDEyNC44TDUwLjQsMTI0Ljh6IE04MS4xLDgzLjYgIGMtMTEuNywwLTIxLjEtOS41LTIxLjEtMjEuMXM5LjUtMjEuMSwyMS4xLTIxLjFjMTEuNywwLDIxLjEsOS41LDIxLjEsMjEuMVM5Mi43LDgzLjYsODEuMSw4My42eiBNODEuMSw1MC4zICBjLTYuNywwLTEyLjEsNS40LTEyLjEsMTIuMXM1LjQsMTIuMSwxMi4xLDEyLjFzMTIuMS01LjQsMTIuMS0xMi4xUzg3LjgsNTAuMyw4MS4xLDUwLjN6IE0xMTQuNSwxMTguOWMwLTE2LjgtMTMuNy0zMC41LTMwLjUtMzAuNSAgaC02Yy0xNi44LDAtMzAuNSwxMy43LTMwLjUsMzAuNXY2aDl2LTZjMC0xMS44LDkuNi0yMS41LDIxLjUtMjEuNWg2YzExLjgsMCwyMS41LDkuNiwyMS41LDIxLjV2Nmg5VjExOC45eiIvPiYjeGE7PC9zdmc+;labelBackgroundColor=none;" parent="Mvm1oyz63STRThyXKM0V-19" vertex="1">
          <mxGeometry x="600" y="250" width="63" height="63" as="geometry" />
        </mxCell>
        <mxCell id="MoFwSUSyxBEC_ITN7L_5-23" value="Health&#xa;check" style="shape=image;verticalLabelPosition=bottom;verticalAlign=top;imageAspect=0;aspect=fixed;image=data:image/svg+xml,PHN2ZyB2ZXJzaW9uPSIxLjEiIGlkPSJIZWFsdGhjaGVjayIgeG1sbnM9Imh0dHA6Ly93d3cudzMub3JnLzIwMDAvc3ZnIiB4bWxuczp4bGluaz0iaHR0cDovL3d3dy53My5vcmcvMTk5OS94bGluayIgeD0iMHB4IiB5PSIwcHgiIHZpZXdCb3g9IjAgMCAxNjEuOSAxNjIiIGVuYWJsZS1iYWNrZ3JvdW5kPSJuZXcgMCAwIDE2MS45IDE2MiIgeG1sOnNwYWNlPSJwcmVzZXJ2ZSI+JiN4YTs8cmVjdCB4PSI1NS4zIiB5PSIxMDEuOCIgZmlsbD0iIzMxMkQyQSIgd2lkdGg9IjUyLjEiIGhlaWdodD0iNi41Ii8+JiN4YTs8cmVjdCB4PSI1NS4zIiB5PSIxMTkuOSIgZmlsbD0iIzMxMkQyQSIgd2lkdGg9IjMwLjkiIGhlaWdodD0iNi41Ii8+JiN4YTs8cG9seWdvbiBmaWxsPSIjMzEyRDJBIiBwb2ludHM9Ijk4LjcsNjQuMyA4Ni4xLDY0LjMgODYuMSw1MS41IDc2LDUxLjUgNzYsNjQuMyA2My40LDY0LjMgNjMuNCw3NC43IDc2LDc0LjcgNzYsODYuOSA4Ni4xLDg2LjkgICA4Ni4xLDc0LjcgOTguNyw3NC43ICIvPiYjeGE7PGc+JiN4YTsJPHBvbHlnb24gZmlsbD0ibm9uZSIgcG9pbnRzPSI1MCw0NS4xIDUwLDM3LjYgMzkuOCwzNy42IDM5LjgsMTQzLjUgMTIzLjUsMTQzLjUgMTIzLjUsMzcuNiAxMTIuMSwzNy42IDExMi4xLDQ1LjEgICIvPiYjeGE7CTxwb2x5Z29uIGZpbGw9IiMzMTJEMkEiIHBvaW50cz0iMTEyLjEsMjguNiAxMTIuMSwzNy42IDEyMy41LDM3LjYgMTIzLjUsMTQzLjUgMzkuOCwxNDMuNSAzOS44LDM3LjYgNTAsMzcuNiA1MCwyOC42IDMwLjgsMjguNiAgICAzMC44LDE1Mi41IDEzMi41LDE1Mi41IDEzMi41LDI4LjYgICIvPiYjeGE7PC9nPiYjeGE7PHBhdGggZmlsbD0iIzMxMkQyQSIgZD0iTTkyLjgsMjEuOWMwLDAsMC0wLjEsMC0wLjFjMC02LjUtNS4zLTExLjktMTEuOS0xMS45cy0xMS45LDUuMy0xMS45LDExLjljMCwwLDAsMC4xLDAsMC4xSDU1Ljh2Ni43ICBsMC4xLDEzLjdoNTAuM2wwLjEtMTMuN3YtNi43SDkyLjh6IE04MC45LDE3LjljMi4xLDAsMy45LDEuNywzLjksMy45cy0xLjcsMy45LTMuOSwzLjlzLTMuOS0xLjctMy45LTMuOVM3OC44LDE3LjksODAuOSwxNy45eiIvPiYjeGE7PC9zdmc+;labelBackgroundColor=#f4f3ef;" parent="Mvm1oyz63STRThyXKM0V-19" vertex="1">
          <mxGeometry x="293" y="411" width="44" height="44" as="geometry" />
        </mxCell>
        <mxCell id="MoFwSUSyxBEC_ITN7L_5-24" value="Email &#xa;notification" style="shape=image;verticalLabelPosition=bottom;verticalAlign=top;imageAspect=0;aspect=fixed;image=data:image/svg+xml,PHN2ZyB2ZXJzaW9uPSIxLjEiIGlkPSJOb3RpZmljYXRpb25zIiB4bWxucz0iaHR0cDovL3d3dy53My5vcmcvMjAwMC9zdmciIHhtbG5zOnhsaW5rPSJodHRwOi8vd3d3LnczLm9yZy8xOTk5L3hsaW5rIiB4PSIwcHgiIHk9IjBweCIgdmlld0JveD0iMCAwIDE2MS45IDE2MiIgZW5hYmxlLWJhY2tncm91bmQ9Im5ldyAwIDAgMTYxLjkgMTYyIiB4bWw6c3BhY2U9InByZXNlcnZlIj4mI3hhOzxwYXRoIGZpbGw9IiMzMTJEMkIiIGQ9Ik0yNC43LDE4LjJsLTAuNC05aDEwLjVsLTAuNCw5bC0xLjUsMTdoLTYuOEwyNC43LDE4LjJ6IE0yOS43LDM5LjFjLTMuNywwLTYuNywzLTYuNyw2LjcgIGMwLDMuNywzLDYuNyw2LjcsNi43czYuNy0zLDYuNy02LjdDMzYuNCw0Mi4xLDMzLjQsMzkuMSwyOS43LDM5LjF6IE03Ni4yLDk2LjFsLTAuMy03LjRoOC42bC0wLjMsNy40TDgzLDExMC4xaC01LjZMNzYuMiw5Ni4xeiAgIE04MC4zLDExMy41Yy0zLDAtNS41LDIuNS01LjUsNS41czIuNSw1LjUsNS41LDUuNXM1LjUtMi41LDUuNS01LjVTODMuMywxMTMuNSw4MC4zLDExMy41eiBNMTI0LjUsMTI5LjhIMzYuOFY4MS4zaDYyLjN2LTlIMjcuOCAgdjY2LjZoMTA1Ljd2LTMwLjJoLTlWMTI5Ljh6IE0xMTcuMSw2NS4ybC0wLjItNS40aDYuM2wtMC4yLDUuNEwxMjIsNzUuM0gxMThMMTE3LjEsNjUuMnogTTEyMC4xLDc3LjZjLTIuMiwwLTQsMS44LTQsNHMxLjgsNCw0LDQgIHM0LTEuOCw0LTRTMTIyLjMsNzcuNiwxMjAuMSw3Ny42eiBNMTAyLjEsNDYuMnY1OS4zaDM2LjNWNDYuMkgxMDIuMXogTTEzMi40LDUyLjJ2NDNoLTI0LjN2LTQzSDEzMi40eiBNMTE3LjEsMTAwYzAtMS43LDEuNC0zLDMtMyAgczMsMS40LDMsM3MtMS40LDMtMywzUzExNy4xLDEwMS43LDExNy4xLDEwMHogTTEyMy42LDQxLjdoLTZWMzNoNlY0MS43eiBNMTIzLjYsMjYuNWgtNnYtNS44aDAuMXYtM2g1LjlWMjYuNXogTTExMS4yLDIzLjdoLTguN3YtNiAgaDguN1YyMy43eiBNOTYsMjMuN2gtOC43di02SDk2VjIzLjd6IE04MC44LDIzLjdoLTguN3YtNmg4LjdWMjMuN3ogTTY1LjUsMjMuN2gtOC43di02aDguN1YyMy43eiBNNTAuMywyMy43aC04Ljd2LTZoOC43VjIzLjd6ICAgTTgzLjcsNjcuOWgtNnYtOC43aDZWNjcuOXogTTgzLjcsNTIuN2gtNlY0NGg2VjUyLjd6IE04My43LDM3LjVoLTZ2LTguN2g2VjM3LjV6IE0xNDIuMiwxNDMuN0gxOS43djloMTIyLjVWMTQzLjd6Ii8+JiN4YTs8L3N2Zz4=;labelBackgroundColor=none;" parent="Mvm1oyz63STRThyXKM0V-19" vertex="1">
          <mxGeometry x="460" y="520" width="52" height="52" as="geometry" />
        </mxCell>
        <mxCell id="MoFwSUSyxBEC_ITN7L_5-21" value="Alarms" style="shape=image;verticalLabelPosition=bottom;verticalAlign=top;imageAspect=0;aspect=fixed;image=data:image/svg+xml,PHN2ZyB2ZXJzaW9uPSIxLjEiIGlkPSJBbGFybSIgeG1sbnM9Imh0dHA6Ly93d3cudzMub3JnLzIwMDAvc3ZnIiB4bWxuczp4bGluaz0iaHR0cDovL3d3dy53My5vcmcvMTk5OS94bGluayIgeD0iMHB4IiB5PSIwcHgiIHZpZXdCb3g9IjAgMCAxNjEuOSAxNjIiIGVuYWJsZS1iYWNrZ3JvdW5kPSJuZXcgMCAwIDE2MS45IDE2MiIgeG1sOnNwYWNlPSJwcmVzZXJ2ZSI+JiN4YTs8Zz4mI3hhOwk8cGF0aCBmaWxsPSIjMzEyRDJBIiBkPSJNODMsMTIwLjRjMjMuNiwwLDQyLjctMTkuNCw0Mi43LTQzLjNTMTA2LjYsMzMuOCw4MywzMy44Yy0yMy42LDAtNDIuNywxOS40LTQyLjcsNDMuM1M1OS41LDEyMC40LDgzLDEyMC40ICAgeiBNODMsNDIuOGMxOC42LDAsMzMuNywxNS40LDMzLjcsMzQuM2MwLDE4LjktMTUuMSwzNC4zLTMzLjcsMzQuM1M0OS4zLDk2LDQ5LjMsNzcuMUM0OS4zLDU4LjIsNjQuNCw0Mi44LDgzLDQyLjh6Ii8+JiN4YTsJPGVsbGlwc2UgZmlsbD0iIzMxMkQyQSIgY3g9IjgzIiBjeT0iNzcuMSIgcng9IjEwLjIiIHJ5PSIxMC40Ii8+JiN4YTsJPHBhdGggZmlsbD0iIzMxMkQyQSIgZD0iTTUzLjEsMzRsLTMtNy40QzM0LDMzLjEsMjksNDQuMSwyNiw1NWw3LjcsMi4xQzM2LjYsNDYuNSw0MC45LDM4LjksNTMuMSwzNHoiLz4mI3hhOwk8cGF0aCBmaWxsPSIjMzEyRDJBIiBkPSJNNDkuOSwxNy4ybC0zLTcuNGMtMTkuNSw3LjgtMzEuNiwyMi4yLTM3LjIsNDRsNy44LDJDMjIuNCwzNi41LDMzLDIzLjksNDkuOSwxNy4yeiIvPiYjeGE7CTxwYXRoIGZpbGw9IiMzMTJEMkEiIGQ9Ik0xMDkuNiwxMjYuOEg0OS45djI1LjloNjQuM3YtMTkuM2MxNC03LjEsMjQuOS0yMi40LDI3LjktMzQuOGwtNy44LTEuOSAgIEMxMzEuNywxMDcuNCwxMjEuNSwxMjEuMSwxMDkuNiwxMjYuOHogTTEwNS4yLDE0My43SDU4Ljl2LTcuOWg0Ni4zVjE0My43eiIvPiYjeGE7CTxlbGxpcHNlIGZpbGw9IiMzMTJEMkEiIGN4PSIxNDEuNCIgY3k9IjgzLjQiIHJ4PSIxMC4yIiByeT0iMTAuNCIvPiYjeGE7PC9nPiYjeGE7PC9zdmc+;labelBackgroundColor=#F4F3EF;" parent="Mvm1oyz63STRThyXKM0V-19" vertex="1">
          <mxGeometry x="360" y="414" width="40" height="40" as="geometry" />
        </mxCell>
        <mxCell id="MoFwSUSyxBEC_ITN7L_5-31" value="Users" style="text;html=1;align=center;verticalAlign=middle;resizable=0;points=[];autosize=1;" parent="Mvm1oyz63STRThyXKM0V-19" vertex="1">
          <mxGeometry x="616" y="310" width="50" height="20" as="geometry" />
        </mxCell>
        <mxCell id="i2llZJ6e1U6uwJUr6aQ1-9" style="edgeStyle=orthogonalEdgeStyle;orthogonalLoop=1;jettySize=auto;html=1;exitX=0.5;exitY=1;exitDx=0;exitDy=0;entryX=0.5;entryY=0;entryDx=0;entryDy=0;startArrow=none;startFill=0;endArrow=none;endFill=0;strokeColor=#d6b656;fillColor=#fff2cc;curved=1;" parent="Mvm1oyz63STRThyXKM0V-19" source="5z3BjopYQKt2J5N__x-G-9" target="MoFwSUSyxBEC_ITN7L_5-32" edge="1">
          <mxGeometry relative="1" as="geometry" />
        </mxCell>
        <mxCell id="5z3BjopYQKt2J5N__x-G-9" value="Object &#xa;Storage" style="shape=image;verticalLabelPosition=bottom;verticalAlign=top;imageAspect=0;aspect=fixed;image=data:image/svg+xml,PHN2ZyB2ZXJzaW9uPSIxLjEiIGlkPSJPYmplY3RfU3RvcmFnZSIgeG1sbnM9Imh0dHA6Ly93d3cudzMub3JnLzIwMDAvc3ZnIiB4bWxuczp4bGluaz0iaHR0cDovL3d3dy53My5vcmcvMTk5OS94bGluayIgeD0iMHB4IiB5PSIwcHgiIHZpZXdCb3g9IjAgMCAxNjEuOSAxNjIiIGVuYWJsZS1iYWNrZ3JvdW5kPSJuZXcgMCAwIDE2MS45IDE2MiIgeG1sOnNwYWNlPSJwcmVzZXJ2ZSI+JiN4YTs8cGF0aCBmaWxsPSIjMzEyRDJBIiBkPSJNMTUzLjEsMTUyLjVIOS40VjI2LjhoMTQzLjhWMTUyLjV6IE0xOC40LDE0My41aDEyNS44VjM1LjhIMTguNFYxNDMuNXogTTE1Mi42LDkuMUg4Ljl2OWgxNDMuOFY5LjF6ICAgTTExNS41LDg3LjRsLTIzLjksMEw3OS43LDY2LjdsMTItMjAuN2wyMy45LDBsMTEuOSwyMC43TDExNS41LDg3LjR6IE05NS43LDgwLjRsMTUuOCwwbDcuOS0xMy43bC03LjktMTMuN2wtMTUuOCwwbC03LjksMTMuNyAgTDk1LjcsODAuNHogTTgwLjMsMTM0LjljLTExLjMsMC0yMC42LTkuMi0yMC42LTIwLjZzOS4yLTIwLjYsMjAuNi0yMC42czIwLjYsOS4yLDIwLjYsMjAuNlM5MS42LDEzNC45LDgwLjMsMTM0Ljl6IE04MC4zLDEwMC44ICBjLTcuNSwwLTEzLjYsNi4xLTEzLjYsMTMuNnM2LjEsMTMuNiwxMy42LDEzLjZjNy41LDAsMTMuNi02LjEsMTMuNi0xMy42Uzg3LjcsMTAwLjgsODAuMywxMDAuOHogTTc5LjUsODYuM0gzMy43bDIyLjgtNDEuNyAgTDc5LjUsODYuM3ogTTQ1LjUsNzkuM2gyMi4yTDU2LjUsNTkuMkw0NS41LDc5LjN6Ii8+JiN4YTs8L3N2Zz4=;labelBackgroundColor=#F4F3EF;" parent="Mvm1oyz63STRThyXKM0V-19" vertex="1">
          <mxGeometry x="223" y="412" width="42" height="42" as="geometry" />
        </mxCell>
      </root>
    </mxGraphModel>
  </diagram>
</mxfile>
